G04*
G04 #@! TF.GenerationSoftware,Altium Limited,Altium Designer,20.0.12 (288)*
G04*
G04 Layer_Physical_Order=1*
G04 Layer_Color=255*
%FSLAX44Y44*%
%MOMM*%
G71*
G01*
G75*
%ADD26O,0.5000X0.4000*%
%ADD27C,0.4000*%
%ADD28C,0.3800*%
%ADD29C,0.2500*%
%ADD30C,1.5000*%
%ADD31C,0.3810*%
%ADD32C,0.8000*%
%ADD33C,1.7000*%
%ADD34R,1.6500X1.6500*%
%ADD35C,3.5000*%
G04:AMPARAMS|DCode=36|XSize=3.5mm|YSize=3.5mm|CornerRadius=0.875mm|HoleSize=0mm|Usage=FLASHONLY|Rotation=0.000|XOffset=0mm|YOffset=0mm|HoleType=Round|Shape=RoundedRectangle|*
%AMROUNDEDRECTD36*
21,1,3.5000,1.7500,0,0,0.0*
21,1,1.7500,3.5000,0,0,0.0*
1,1,1.7500,0.8750,-0.8750*
1,1,1.7500,-0.8750,-0.8750*
1,1,1.7500,-0.8750,0.8750*
1,1,1.7500,0.8750,0.8750*
%
%ADD36ROUNDEDRECTD36*%
%ADD37R,1.6500X1.6500*%
%ADD38C,1.6500*%
%ADD39R,2.5500X2.5500*%
%ADD40C,2.5500*%
%ADD41C,1.5080*%
%ADD42C,1.0000*%
G36*
X401811Y524500D02*
X401731Y525260D01*
X401490Y525940D01*
X401088Y526540D01*
X400526Y527060D01*
X399803Y527500D01*
X398920Y527860D01*
X397876Y528140D01*
X396671Y528340D01*
X395306Y528460D01*
X393781Y528500D01*
Y536500D01*
X395306Y536540D01*
X396671Y536660D01*
X397876Y536860D01*
X398920Y537140D01*
X399803Y537500D01*
X400526Y537940D01*
X401088Y538460D01*
X401490Y539060D01*
X401731Y539740D01*
X401811Y540500D01*
Y524500D01*
D02*
G37*
G36*
X138876Y523219D02*
X137289Y521576D01*
X134794Y518631D01*
X133886Y517329D01*
X133204Y516141D01*
X132749Y515066D01*
X132519Y514106D01*
X132516Y513259D01*
X132739Y512525D01*
X133189Y511906D01*
X121906Y523189D01*
X122525Y522739D01*
X123259Y522516D01*
X124106Y522519D01*
X125066Y522749D01*
X126141Y523204D01*
X127329Y523886D01*
X128631Y524794D01*
X130047Y525929D01*
X133219Y528876D01*
X138876Y523219D01*
D02*
G37*
G36*
X417240Y524201D02*
X416560Y523960D01*
X415960Y523560D01*
X415440Y523000D01*
X415000Y522281D01*
X414640Y521400D01*
X414360Y520360D01*
X414160Y519160D01*
X414040Y517800D01*
X414000Y516281D01*
X406000D01*
X405960Y517800D01*
X405840Y519160D01*
X405640Y520360D01*
X405360Y521400D01*
X405000Y522281D01*
X404560Y523000D01*
X404040Y523560D01*
X403440Y523960D01*
X402760Y524201D01*
X402000Y524281D01*
X418000D01*
X417240Y524201D01*
D02*
G37*
G36*
X488918Y323987D02*
X489060Y322397D01*
X489184Y321685D01*
X489344Y321030D01*
X489539Y320431D01*
X489770Y319887D01*
X490036Y319399D01*
X490338Y318968D01*
X490675Y318592D01*
X479125D01*
X479462Y318968D01*
X479764Y319399D01*
X480030Y319887D01*
X480261Y320431D01*
X480456Y321030D01*
X480616Y321685D01*
X480740Y322397D01*
X480829Y323164D01*
X480900Y324865D01*
X488900D01*
X488918Y323987D01*
D02*
G37*
G36*
X484902Y308700D02*
X484624Y308645D01*
X484259Y308479D01*
X483807Y308203D01*
X483267Y307816D01*
X482272Y306996D01*
X484818Y304450D01*
X483789Y304437D01*
X481908Y304263D01*
X481054Y304104D01*
X480259Y303896D01*
X479522Y303639D01*
X478843Y303334D01*
X478222Y302980D01*
X477659Y302577D01*
X477154Y302126D01*
X474326Y304954D01*
X474777Y305459D01*
X475180Y306022D01*
X475534Y306642D01*
X475839Y307322D01*
X476096Y308059D01*
X476304Y308854D01*
X476463Y309708D01*
X476574Y310620D01*
X476637Y311589D01*
X476650Y312617D01*
X479123Y310145D01*
X480403Y311607D01*
X480679Y312059D01*
X480845Y312424D01*
X480900Y312703D01*
X484902Y308700D01*
D02*
G37*
G36*
X510218Y304450D02*
X508994Y304443D01*
X506809Y304306D01*
X505848Y304177D01*
X504975Y304007D01*
X504188Y303797D01*
X503489Y303546D01*
X502878Y303254D01*
X502354Y302922D01*
X501917Y302550D01*
X500150Y304317D01*
X500522Y304754D01*
X500854Y305278D01*
X501146Y305889D01*
X501397Y306588D01*
X501607Y307374D01*
X501777Y308248D01*
X501906Y309209D01*
X502043Y311394D01*
X502050Y312617D01*
X510218Y304450D01*
D02*
G37*
G36*
X1100000Y0D02*
X634590D01*
Y70000D01*
X634508Y70413D01*
X634453Y70830D01*
X634410Y70905D01*
X634393Y70991D01*
X634159Y71341D01*
X633949Y71705D01*
X630583Y75553D01*
X630243Y76188D01*
X627739Y79239D01*
X625980Y80683D01*
X623831Y82831D01*
X623499Y83053D01*
X623186Y83302D01*
X623082Y83332D01*
X622991Y83393D01*
X622599Y83471D01*
X622215Y83581D01*
X620930Y83688D01*
X617429Y84750D01*
X613500Y85137D01*
X609571Y84750D01*
X605794Y83604D01*
X602313Y81743D01*
X600156Y79973D01*
X598842Y79316D01*
X598805Y79288D01*
X598760Y79274D01*
X533323Y43581D01*
X499160Y43106D01*
X498899Y44373D01*
X500068Y44857D01*
X502374Y46626D01*
X504143Y48932D01*
X505256Y51618D01*
X505635Y54500D01*
X505256Y57382D01*
X504143Y60068D01*
X503979Y60282D01*
X503523Y61121D01*
X501886Y64355D01*
X501196Y65946D01*
X500984Y66524D01*
X500849Y66971D01*
X500804Y67175D01*
Y279724D01*
X502074Y280097D01*
X645822Y56599D01*
X645916Y56502D01*
X645978Y56382D01*
X646597Y55608D01*
X647557Y53812D01*
X650061Y50761D01*
X651265Y49773D01*
X653978Y46382D01*
X654088Y46289D01*
X654169Y46169D01*
X654472Y45966D01*
X654751Y45732D01*
X654889Y45688D01*
X655009Y45607D01*
X655367Y45536D01*
X655714Y45426D01*
X655858Y45438D01*
X656000Y45410D01*
X659843D01*
X660371Y45250D01*
X664300Y44863D01*
X668229Y45250D01*
X668757Y45410D01*
X670000D01*
X670277Y45465D01*
X670560Y45472D01*
X670768Y45563D01*
X670991Y45607D01*
X671226Y45765D01*
X671485Y45878D01*
X672930Y46889D01*
X675488Y48257D01*
X678539Y50761D01*
X678645Y50890D01*
X681485Y52878D01*
X681732Y53136D01*
X682007Y53363D01*
X682078Y53498D01*
X682184Y53608D01*
X682313Y53941D01*
X682481Y54256D01*
X685480Y64256D01*
X685516Y64631D01*
X685590Y65000D01*
Y70957D01*
X686808Y71316D01*
X700824Y49596D01*
X700993Y49421D01*
X701123Y49216D01*
X701341Y49062D01*
X701527Y48870D01*
X701750Y48773D01*
X701948Y48633D01*
X710948Y44633D01*
X711087Y44602D01*
X711211Y44533D01*
X711576Y44492D01*
X711934Y44411D01*
X712074Y44435D01*
X712215Y44419D01*
X724215Y45419D01*
X724694Y45557D01*
X725172Y45690D01*
X725178Y45696D01*
X725186Y45698D01*
X725575Y46007D01*
X725966Y46315D01*
X731966Y53315D01*
X732187Y53707D01*
X732425Y54091D01*
X733443Y56805D01*
X733704Y57294D01*
X734035Y58383D01*
X735425Y62091D01*
X735500Y62547D01*
X735590Y63000D01*
Y72459D01*
X736860Y72830D01*
X749819Y52603D01*
X749857Y52564D01*
X749879Y52513D01*
X750206Y52201D01*
X750520Y51875D01*
X750570Y51853D01*
X750610Y51815D01*
X751000Y51567D01*
X751661Y50761D01*
X754713Y48257D01*
X758194Y46396D01*
X759974Y45856D01*
X761610Y44815D01*
X761821Y44733D01*
X762009Y44607D01*
X762287Y44552D01*
X762552Y44449D01*
X762778Y44454D01*
X763000Y44410D01*
X772000D01*
X772277Y44465D01*
X772560Y44472D01*
X772768Y44563D01*
X772991Y44607D01*
X773226Y44765D01*
X773485Y44878D01*
X783485Y51878D01*
X783505Y51899D01*
X783531Y51912D01*
X783854Y52263D01*
X784184Y52608D01*
X784194Y52635D01*
X784214Y52657D01*
X784377Y53105D01*
X784550Y53550D01*
X784550Y53579D01*
X784560Y53606D01*
X786560Y66606D01*
X786542Y67016D01*
X786554Y67426D01*
X785775Y72106D01*
X786960Y72562D01*
X797819Y55603D01*
X797932Y55486D01*
X798010Y55342D01*
X803010Y49342D01*
X803077Y49288D01*
X803123Y49216D01*
X803468Y48973D01*
X803796Y48707D01*
X803878Y48683D01*
X803948Y48633D01*
X812948Y44633D01*
X812981Y44626D01*
X813009Y44607D01*
X813473Y44515D01*
X813934Y44411D01*
X813967Y44417D01*
X814000Y44410D01*
X826000D01*
X826991Y44607D01*
X827831Y45169D01*
X834831Y52169D01*
X834883Y52246D01*
X834956Y52303D01*
X835162Y52664D01*
X835393Y53009D01*
X835411Y53100D01*
X835457Y53181D01*
X838457Y62181D01*
X838480Y62362D01*
X838547Y62532D01*
X838542Y62859D01*
X838583Y63184D01*
X838535Y63360D01*
X838532Y63543D01*
X836801Y71624D01*
X837974Y72109D01*
X851823Y50598D01*
X851913Y50505D01*
X851972Y50390D01*
X852261Y50144D01*
X852525Y49872D01*
X852644Y49820D01*
X852742Y49736D01*
X861742Y44736D01*
X861885Y44690D01*
X862009Y44607D01*
X862362Y44537D01*
X862704Y44427D01*
X862853Y44439D01*
X863000Y44410D01*
X875000D01*
X875412Y44492D01*
X875830Y44547D01*
X875905Y44590D01*
X875991Y44607D01*
X876341Y44841D01*
X876705Y45051D01*
X884705Y52051D01*
X884815Y52193D01*
X884956Y52303D01*
X885120Y52590D01*
X885321Y52852D01*
X885368Y53025D01*
X885457Y53181D01*
X888457Y62181D01*
X888509Y62593D01*
X888590Y63000D01*
Y75342D01*
X889806Y75707D01*
X895694Y66793D01*
X901596Y52038D01*
X901728Y51835D01*
X901816Y51608D01*
X902001Y51415D01*
X902147Y51191D01*
X902347Y51054D01*
X902515Y50878D01*
X912515Y43878D01*
X912863Y43725D01*
X913195Y43538D01*
X913323Y43523D01*
X913440Y43472D01*
X913820Y43463D01*
X914199Y43418D01*
X927199Y44418D01*
X927664Y44548D01*
X928130Y44670D01*
X928149Y44684D01*
X928172Y44690D01*
X928551Y44989D01*
X928936Y45279D01*
X936936Y54279D01*
X937047Y54469D01*
X937197Y54629D01*
X937300Y54901D01*
X937447Y55151D01*
X937477Y55369D01*
X937554Y55574D01*
X939555Y67574D01*
X939541Y68000D01*
X939555Y68426D01*
X938166Y76754D01*
X939347Y77223D01*
X947501Y65076D01*
X949428Y48697D01*
X949583Y48219D01*
X949736Y47742D01*
X949738Y47740D01*
X949740Y47736D01*
X950064Y47356D01*
X950390Y46972D01*
X950393Y46970D01*
X950395Y46967D01*
X950843Y46739D01*
X951289Y46510D01*
X958289Y44510D01*
X958696Y44476D01*
X959100Y44412D01*
X970811Y44863D01*
X977850D01*
X980755Y45245D01*
X985100Y45412D01*
X985544Y45518D01*
X985991Y45607D01*
X986033Y45635D01*
X986082Y45647D01*
X986452Y45915D01*
X986831Y46169D01*
X990831Y50169D01*
X990880Y50241D01*
X990949Y50295D01*
X991159Y50659D01*
X991393Y51009D01*
X991410Y51095D01*
X991453Y51170D01*
X991508Y51588D01*
X991590Y52000D01*
X991573Y52086D01*
X991584Y52172D01*
X989584Y82172D01*
X989542Y82329D01*
X989543Y82492D01*
X989412Y82813D01*
X989321Y83148D01*
X989222Y83277D01*
X989161Y83427D01*
X849161Y295427D01*
X848966Y295625D01*
X848809Y295853D01*
X848614Y295980D01*
X848450Y296145D01*
X848195Y296253D01*
X847962Y296404D01*
X842962Y298405D01*
X842480Y298494D01*
X842000Y298590D01*
X811000D01*
X810914Y298573D01*
X810828Y298584D01*
X810422Y298475D01*
X810009Y298393D01*
X809936Y298344D01*
X809852Y298321D01*
X809519Y298065D01*
X809169Y297831D01*
X809120Y297759D01*
X809051Y297705D01*
X802051Y289705D01*
X801987Y289594D01*
X801893Y289505D01*
X801736Y289159D01*
X801641Y288994D01*
X801018Y288947D01*
X800679Y289023D01*
X800339Y289151D01*
X800212Y290117D01*
X799125Y292742D01*
X797395Y294995D01*
X797384Y295005D01*
X797380Y295020D01*
X797154Y295350D01*
X796956Y295697D01*
X796870Y295764D01*
X796809Y295853D01*
X796474Y296071D01*
X796158Y296316D01*
X796053Y296345D01*
X795962Y296404D01*
X794608Y296946D01*
X792517Y297812D01*
X792406Y297827D01*
X790962Y298405D01*
X790480Y298494D01*
X790000Y298590D01*
X762000D01*
X761600Y298510D01*
X761195Y298462D01*
X761108Y298412D01*
X761009Y298393D01*
X760670Y298166D01*
X760315Y297966D01*
X758874Y296731D01*
X758858Y296725D01*
X756605Y294995D01*
X756135Y294384D01*
X753315Y291966D01*
X753139Y291743D01*
X752928Y291554D01*
X752830Y291350D01*
X752690Y291172D01*
X752614Y290898D01*
X752491Y290643D01*
X752479Y290417D01*
X752418Y290199D01*
X752452Y289917D01*
X752436Y289634D01*
X752794Y287131D01*
X751606Y286681D01*
X749430Y289984D01*
X749412Y290117D01*
X748325Y292742D01*
X746596Y294995D01*
X745905Y295525D01*
X744221Y298332D01*
X743981Y298597D01*
X743773Y298888D01*
X743644Y298968D01*
X743542Y299081D01*
X743219Y299233D01*
X742916Y299422D01*
X742766Y299447D01*
X742628Y299512D01*
X742271Y299530D01*
X741919Y299589D01*
X709919Y298589D01*
X709481Y298487D01*
X709038Y298405D01*
X704038Y296404D01*
X703719Y296197D01*
X703382Y296022D01*
X703299Y295924D01*
X703191Y295853D01*
X702976Y295540D01*
X702731Y295249D01*
X702692Y295126D01*
X702620Y295020D01*
X702541Y294648D01*
X702426Y294286D01*
X701923Y289754D01*
X700685Y289466D01*
X698184Y293392D01*
X697891Y293698D01*
X697618Y294022D01*
X692618Y298022D01*
X692294Y298190D01*
X691991Y298393D01*
X691849Y298421D01*
X691721Y298487D01*
X691357Y298519D01*
X691000Y298590D01*
X660000D01*
X659811Y298552D01*
X659619Y298562D01*
X659320Y298454D01*
X659009Y298393D01*
X658849Y298286D01*
X658668Y298221D01*
X653668Y295221D01*
X653551Y295115D01*
X653410Y295044D01*
X653180Y294778D01*
X652919Y294542D01*
X652852Y294399D01*
X652749Y294280D01*
X652638Y293946D01*
X652488Y293628D01*
X652480Y293471D01*
X652430Y293321D01*
X651759Y287949D01*
X650520Y287667D01*
X646177Y294403D01*
X646112Y294470D01*
X646072Y294554D01*
X643072Y298554D01*
X642905Y298703D01*
X642775Y298886D01*
X642532Y299037D01*
X642319Y299228D01*
X642108Y299303D01*
X641918Y299422D01*
X641636Y299469D01*
X641366Y299564D01*
X641143Y299552D01*
X640921Y299589D01*
X607922Y298589D01*
X607819Y298565D01*
X607714Y298574D01*
X607330Y298452D01*
X606937Y298361D01*
X606851Y298300D01*
X606751Y298269D01*
X606442Y298009D01*
X606114Y297775D01*
X606058Y297686D01*
X605978Y297618D01*
X601978Y292618D01*
X601810Y292294D01*
X601607Y291991D01*
X601579Y291849D01*
X601513Y291721D01*
X601481Y291357D01*
X601410Y291000D01*
Y290171D01*
X601388Y290117D01*
X601109Y288002D01*
X599790Y287710D01*
X596186Y293388D01*
X595990Y293594D01*
X595831Y293831D01*
X591831Y297831D01*
X590991Y298393D01*
X590000Y298590D01*
X563000D01*
X562818Y298554D01*
X562634Y298564D01*
X555634Y297564D01*
X555327Y297456D01*
X555009Y297393D01*
X554855Y297290D01*
X554681Y297228D01*
X554439Y297012D01*
X554169Y296831D01*
X551169Y293831D01*
X550988Y293561D01*
X550772Y293319D01*
X550710Y293145D01*
X550607Y292991D01*
X550544Y292673D01*
X550436Y292366D01*
X549864Y288358D01*
X548623Y288085D01*
X545173Y293409D01*
X545111Y293473D01*
X545072Y293554D01*
X542072Y297554D01*
X541934Y297677D01*
X541831Y297831D01*
X541561Y298012D01*
X541320Y298228D01*
X541145Y298290D01*
X540991Y298393D01*
X540672Y298456D01*
X540366Y298564D01*
X540182Y298554D01*
X540000Y298590D01*
X510000D01*
X509521Y298494D01*
X509038Y298405D01*
X507594Y297827D01*
X507483Y297812D01*
X505392Y296946D01*
X504038Y296404D01*
X503812Y296258D01*
X503563Y296155D01*
X501924Y295062D01*
X500804Y295661D01*
Y297739D01*
X503902Y300837D01*
X504133Y300983D01*
X504487Y301152D01*
X504962Y301323D01*
X505557Y301482D01*
X506268Y301620D01*
X507063Y301727D01*
X509083Y301854D01*
X509979Y301859D01*
X510300Y301817D01*
X513117Y302188D01*
X515742Y303275D01*
X517995Y305005D01*
X519725Y307258D01*
X520812Y309883D01*
X521183Y312700D01*
X520812Y315517D01*
X519725Y318142D01*
X517995Y320396D01*
X515742Y322125D01*
X513117Y323212D01*
X510300Y323583D01*
X507483Y323212D01*
X504858Y322125D01*
X502604Y320396D01*
X500875Y318142D01*
X499788Y315517D01*
X499417Y312700D01*
X499459Y312379D01*
X499454Y311483D01*
X499327Y309463D01*
X499220Y308668D01*
X499082Y307957D01*
X498923Y307362D01*
X498752Y306887D01*
X498583Y306533D01*
X498437Y306302D01*
X494208Y302072D01*
X493370Y300819D01*
X493076Y299340D01*
Y67809D01*
X493073Y67773D01*
X493013Y67524D01*
X492899Y67246D01*
X492712Y66926D01*
X492432Y66561D01*
X492046Y66156D01*
X491546Y65721D01*
X490928Y65264D01*
X490191Y64793D01*
X489305Y64298D01*
X488932Y64143D01*
X486626Y62374D01*
X484857Y60068D01*
X483744Y57382D01*
X483365Y54500D01*
X483744Y51618D01*
X484857Y48932D01*
X486626Y46626D01*
X488932Y44857D01*
X490386Y44254D01*
X490142Y42981D01*
X481207Y42857D01*
X480290Y44114D01*
Y65290D01*
X474701D01*
X474651Y65593D01*
X474629Y65848D01*
Y268227D01*
X475391Y268989D01*
X476372Y270458D01*
X476717Y272190D01*
Y297971D01*
X479347Y300600D01*
X479620Y300796D01*
X480018Y301022D01*
X480480Y301231D01*
X481014Y301416D01*
X481621Y301575D01*
X482265Y301696D01*
X483926Y301849D01*
X484592Y301857D01*
X484900Y301817D01*
X487717Y302188D01*
X490342Y303275D01*
X492595Y305005D01*
X494325Y307258D01*
X495412Y309883D01*
X495783Y312700D01*
X495412Y315517D01*
X494325Y318142D01*
X492595Y320396D01*
X492404Y320542D01*
X492370Y320580D01*
X492241Y320766D01*
X492104Y321016D01*
X491967Y321339D01*
X491837Y321739D01*
X491721Y322215D01*
X491630Y322735D01*
X491505Y324128D01*
X491496Y324561D01*
Y405100D01*
X491272Y406807D01*
X490613Y408398D01*
X489564Y409764D01*
X416596Y482732D01*
Y516500D01*
X416627Y517653D01*
X416731Y518833D01*
X416894Y519810D01*
X417099Y520570D01*
X417318Y521107D01*
X417514Y521428D01*
X417650Y521575D01*
X417727Y521626D01*
X417814Y521657D01*
X418271Y521705D01*
X418287Y521710D01*
X420790D01*
Y543290D01*
X399210D01*
Y540530D01*
X399187Y540317D01*
X399157Y540231D01*
X399106Y540154D01*
X398958Y540017D01*
X398634Y539820D01*
X398093Y539599D01*
X397327Y539394D01*
X396345Y539231D01*
X395159Y539127D01*
X394001Y539096D01*
X348232D01*
X341664Y545664D01*
X340298Y546713D01*
X338707Y547372D01*
X337000Y547596D01*
X151000D01*
X149293Y547372D01*
X147702Y546713D01*
X146336Y545664D01*
X131289Y530618D01*
X128354Y527891D01*
X127079Y526869D01*
X125941Y526076D01*
X125443Y525790D01*
X114210D01*
Y504210D01*
X135790D01*
Y515443D01*
X136076Y515941D01*
X136849Y517050D01*
X138701Y519236D01*
X139798Y518567D01*
X139488Y517817D01*
X139117Y515000D01*
X139488Y512183D01*
X140575Y509558D01*
X142304Y507304D01*
X144558Y505575D01*
X147183Y504488D01*
X150000Y504117D01*
X152817Y504488D01*
X155442Y505575D01*
X157696Y507304D01*
X159425Y509558D01*
X160512Y512183D01*
X160883Y515000D01*
X160512Y517817D01*
X159425Y520442D01*
X157696Y522696D01*
X155442Y524425D01*
X152817Y525512D01*
X150000Y525883D01*
X147183Y525512D01*
X146251Y525126D01*
X145532Y526203D01*
X153732Y534404D01*
X334268D01*
X340836Y527836D01*
X342202Y526787D01*
X343793Y526128D01*
X345500Y525904D01*
X394001D01*
X395159Y525873D01*
X396345Y525769D01*
X397327Y525606D01*
X398093Y525401D01*
X398634Y525180D01*
X398958Y524983D01*
X399106Y524846D01*
X399157Y524769D01*
X399187Y524683D01*
X399210Y524470D01*
Y521710D01*
X401713D01*
X401729Y521705D01*
X402186Y521657D01*
X402273Y521626D01*
X402350Y521575D01*
X402486Y521429D01*
X402682Y521107D01*
X402901Y520570D01*
X403106Y519810D01*
X403269Y518833D01*
X403373Y517653D01*
X403404Y516500D01*
Y480000D01*
X403628Y478293D01*
X404287Y476702D01*
X405336Y475336D01*
X478304Y402368D01*
Y324760D01*
X478245Y323367D01*
X478176Y322769D01*
X478080Y322215D01*
X477963Y321739D01*
X477833Y321339D01*
X477696Y321016D01*
X477559Y320766D01*
X477430Y320580D01*
X477396Y320542D01*
X477205Y320396D01*
X475475Y318142D01*
X474388Y315517D01*
X474017Y312700D01*
X474057Y312392D01*
X474048Y311690D01*
X473995Y310859D01*
X473903Y310103D01*
X473775Y309421D01*
X473616Y308814D01*
X473430Y308280D01*
X473223Y307818D01*
X472996Y307420D01*
X472800Y307146D01*
X468917Y303263D01*
X467913Y301761D01*
X467561Y299990D01*
X467663Y299477D01*
Y274065D01*
X467161Y273564D01*
X466727Y273273D01*
X465723Y271771D01*
X465371Y270000D01*
Y65848D01*
X465349Y65593D01*
X465299Y65290D01*
X458710D01*
Y45549D01*
X457640Y44865D01*
X450263Y48269D01*
X397427Y83161D01*
X397048Y83316D01*
X396681Y83498D01*
X385681Y86498D01*
X385467Y86514D01*
X385262Y86576D01*
X384968Y86549D01*
X384673Y86569D01*
X384470Y86501D01*
X384256Y86481D01*
X374256Y83481D01*
X373874Y83278D01*
X373482Y83098D01*
X373430Y83042D01*
X373363Y83007D01*
X373088Y82674D01*
X372794Y82357D01*
X369901Y77655D01*
X369107Y76687D01*
X367794Y74232D01*
X364794Y69357D01*
X364716Y69145D01*
X364593Y68956D01*
X364542Y68676D01*
X364443Y68410D01*
X364451Y68184D01*
X364411Y67962D01*
X365397Y905D01*
X364505Y0D01*
X0D01*
Y600000D01*
X1100000D01*
Y0D01*
D02*
G37*
G36*
X472020Y65954D02*
X472080Y65269D01*
X472180Y64664D01*
X472320Y64140D01*
X472500Y63697D01*
X472720Y63334D01*
X472980Y63052D01*
X473280Y62850D01*
X473620Y62729D01*
X474000Y62689D01*
X466000D01*
X466380Y62729D01*
X466720Y62850D01*
X467020Y63052D01*
X467280Y63334D01*
X467500Y63697D01*
X467680Y64140D01*
X467820Y64664D01*
X467920Y65269D01*
X467980Y65954D01*
X468000Y66719D01*
X472000D01*
X472020Y65954D01*
D02*
G37*
G36*
X498190Y67257D02*
X498228Y66838D01*
X498340Y66319D01*
X498528Y65701D01*
X498790Y64985D01*
X499541Y63254D01*
X501229Y59917D01*
X501942Y58607D01*
X490543Y62023D01*
X491521Y62570D01*
X492396Y63129D01*
X493168Y63699D01*
X493837Y64281D01*
X494403Y64875D01*
X494866Y65480D01*
X495227Y66097D01*
X495484Y66725D01*
X495639Y67365D01*
X495690Y68016D01*
X498190Y67257D01*
D02*
G37*
G36*
X543000Y292000D02*
X683000Y76000D01*
Y65000D01*
X680000Y55000D01*
X670000Y48000D01*
X656000D01*
X648000Y58000D01*
X502000Y285000D01*
Y292000D01*
X505000Y294000D01*
X510000Y296000D01*
X540000D01*
X543000Y292000D01*
D02*
G37*
G36*
X847000Y294000D02*
X987000Y82000D01*
X989000Y52000D01*
X985000Y48000D01*
X959000Y47000D01*
X952000Y49000D01*
X950000Y66000D01*
X805000Y282000D01*
X804000Y288000D01*
X811000Y296000D01*
X842000D01*
X847000Y294000D01*
D02*
G37*
G36*
X745000Y292000D02*
X886000Y78000D01*
Y63000D01*
X883000Y54000D01*
X875000Y47000D01*
X863000D01*
X854000Y52000D01*
X704000Y285000D01*
X705000Y294000D01*
X710000Y296000D01*
X742000Y297000D01*
X745000Y292000D01*
D02*
G37*
G36*
X696000D02*
X833000Y77000D01*
X836000Y63000D01*
X833000Y54000D01*
X826000Y47000D01*
X814000D01*
X805000Y51000D01*
X800000Y57000D01*
X654000Y285000D01*
X655000Y293000D01*
X660000Y296000D01*
X691000D01*
X696000Y292000D01*
D02*
G37*
G36*
X644000Y293000D02*
X782000Y79000D01*
X784000Y67000D01*
X782000Y54000D01*
X772000Y47000D01*
X763000D01*
X752000Y54000D01*
X604000Y285000D01*
Y291000D01*
X608000Y296000D01*
X641000Y297000D01*
X644000Y293000D01*
D02*
G37*
G36*
X594000Y292000D02*
X733000Y73000D01*
Y63000D01*
X730000Y55000D01*
X724000Y48000D01*
X712000Y47000D01*
X703000Y51000D01*
X552000Y285000D01*
X553000Y292000D01*
X556000Y295000D01*
X563000Y296000D01*
X590000D01*
X594000Y292000D01*
D02*
G37*
G36*
X795000Y294000D02*
X797000Y288000D01*
X935000Y80000D01*
X937000Y68000D01*
X935000Y56000D01*
X927000Y47000D01*
X914000Y46000D01*
X904000Y53000D01*
X898000Y68000D01*
X756000Y283000D01*
X755000Y290000D01*
X762000Y296000D01*
X790000D01*
X795000Y294000D01*
D02*
G37*
G36*
X396000Y81000D02*
X449000Y46000D01*
X462000Y40000D01*
X534000Y41000D01*
X600000Y77000D01*
X610000Y82000D01*
X622000Y81000D01*
X625000Y78000D01*
X632000Y70000D01*
Y0D01*
X368000D01*
X367000Y68000D01*
X375000Y81000D01*
X385000Y84000D01*
X396000Y81000D01*
D02*
G37*
%LPC*%
G36*
X1071477Y587590D02*
X1068523D01*
X1068272Y587540D01*
X1068017D01*
X1065119Y586964D01*
X1064884Y586866D01*
X1064634Y586816D01*
X1061904Y585685D01*
X1061692Y585544D01*
X1061456Y585446D01*
X1058999Y583805D01*
X1058819Y583624D01*
X1058607Y583483D01*
X1056517Y581393D01*
X1056376Y581181D01*
X1056195Y581001D01*
X1054554Y578544D01*
X1054456Y578308D01*
X1054314Y578096D01*
X1053184Y575366D01*
X1053134Y575116D01*
X1053036Y574881D01*
X1052460Y571983D01*
Y571727D01*
X1052410Y571477D01*
Y568523D01*
X1052460Y568272D01*
Y568017D01*
X1053036Y565119D01*
X1053134Y564884D01*
X1053184Y564634D01*
X1054314Y561904D01*
X1054456Y561692D01*
X1054554Y561456D01*
X1056195Y558999D01*
X1056376Y558819D01*
X1056517Y558607D01*
X1058607Y556517D01*
X1058819Y556376D01*
X1058999Y556195D01*
X1061456Y554554D01*
X1061692Y554456D01*
X1061904Y554314D01*
X1064634Y553184D01*
X1064884Y553134D01*
X1065119Y553036D01*
X1068017Y552460D01*
X1068272D01*
X1068523Y552410D01*
X1071477D01*
X1071728Y552460D01*
X1071983D01*
X1074881Y553036D01*
X1075116Y553134D01*
X1075366Y553184D01*
X1078096Y554314D01*
X1078308Y554456D01*
X1078544Y554554D01*
X1081001Y556195D01*
X1081181Y556376D01*
X1081393Y556517D01*
X1083483Y558607D01*
X1083624Y558819D01*
X1083804Y558999D01*
X1085446Y561456D01*
X1085544Y561692D01*
X1085685Y561904D01*
X1086816Y564634D01*
X1086866Y564884D01*
X1086964Y565119D01*
X1087540Y568017D01*
Y568272D01*
X1087590Y568523D01*
Y571477D01*
X1087540Y571727D01*
Y571983D01*
X1086964Y574881D01*
X1086866Y575116D01*
X1086816Y575366D01*
X1085685Y578096D01*
X1085544Y578308D01*
X1085446Y578544D01*
X1083804Y581001D01*
X1083624Y581181D01*
X1083483Y581393D01*
X1081393Y583483D01*
X1081181Y583624D01*
X1081001Y583805D01*
X1078544Y585446D01*
X1078308Y585544D01*
X1078096Y585685D01*
X1075366Y586816D01*
X1075116Y586866D01*
X1074881Y586964D01*
X1071983Y587540D01*
X1071728D01*
X1071477Y587590D01*
D02*
G37*
G36*
X31477D02*
X28523D01*
X28272Y587540D01*
X28017D01*
X25119Y586964D01*
X24884Y586866D01*
X24634Y586816D01*
X21904Y585685D01*
X21692Y585544D01*
X21456Y585446D01*
X18999Y583805D01*
X18819Y583624D01*
X18607Y583483D01*
X16517Y581393D01*
X16376Y581181D01*
X16195Y581001D01*
X14554Y578544D01*
X14456Y578308D01*
X14315Y578096D01*
X13184Y575366D01*
X13134Y575116D01*
X13036Y574881D01*
X12460Y571983D01*
Y571727D01*
X12410Y571477D01*
Y568523D01*
X12460Y568272D01*
Y568017D01*
X13036Y565119D01*
X13134Y564884D01*
X13184Y564634D01*
X14315Y561904D01*
X14456Y561692D01*
X14554Y561456D01*
X16195Y558999D01*
X16376Y558819D01*
X16517Y558607D01*
X18607Y556517D01*
X18819Y556376D01*
X18999Y556195D01*
X21456Y554554D01*
X21692Y554456D01*
X21904Y554314D01*
X24634Y553184D01*
X24884Y553134D01*
X25119Y553036D01*
X28017Y552460D01*
X28272D01*
X28523Y552410D01*
X31477D01*
X31727Y552460D01*
X31983D01*
X34880Y553036D01*
X35116Y553134D01*
X35366Y553184D01*
X38096Y554314D01*
X38308Y554456D01*
X38544Y554554D01*
X41001Y556195D01*
X41181Y556376D01*
X41393Y556517D01*
X43482Y558607D01*
X43624Y558819D01*
X43804Y558999D01*
X45446Y561456D01*
X45544Y561692D01*
X45685Y561904D01*
X46816Y564634D01*
X46866Y564884D01*
X46964Y565119D01*
X47540Y568017D01*
Y568272D01*
X47590Y568523D01*
Y571477D01*
X47540Y571727D01*
Y571983D01*
X46964Y574881D01*
X46866Y575116D01*
X46816Y575366D01*
X45685Y578096D01*
X45544Y578308D01*
X45446Y578544D01*
X43804Y581001D01*
X43624Y581181D01*
X43482Y581393D01*
X41393Y583483D01*
X41181Y583624D01*
X41001Y583805D01*
X38544Y585446D01*
X38308Y585544D01*
X38096Y585685D01*
X35366Y586816D01*
X35116Y586866D01*
X34880Y586964D01*
X31983Y587540D01*
X31727D01*
X31477Y587590D01*
D02*
G37*
G36*
X984781Y535809D02*
X984719Y535797D01*
X984656Y535806D01*
X984316Y535790D01*
X982210D01*
Y535689D01*
X970487Y535127D01*
X942608D01*
X935790Y535345D01*
Y535790D01*
X933316D01*
X933220Y535809D01*
X933160Y535797D01*
X933099Y535807D01*
X933033Y535790D01*
X916877D01*
X916780Y535809D01*
X916719Y535797D01*
X916656Y535806D01*
X916317Y535790D01*
X914210D01*
Y535689D01*
X902487Y535127D01*
X875108D01*
X868290Y535345D01*
Y535790D01*
X865816D01*
X865720Y535809D01*
X865660Y535797D01*
X865599Y535807D01*
X865533Y535790D01*
X846710D01*
Y514210D01*
X865623D01*
X865720Y514191D01*
X865781Y514203D01*
X865844Y514194D01*
X866183Y514210D01*
X868290D01*
Y514311D01*
X880013Y514873D01*
X907392D01*
X914210Y514655D01*
Y514210D01*
X916684D01*
X916780Y514191D01*
X916840Y514203D01*
X916901Y514193D01*
X916967Y514210D01*
X933123D01*
X933220Y514191D01*
X933281Y514203D01*
X933344Y514194D01*
X933684Y514210D01*
X935790D01*
Y514311D01*
X947513Y514873D01*
X975392D01*
X982210Y514655D01*
Y514210D01*
X984684D01*
X984781Y514191D01*
X984840Y514203D01*
X984901Y514193D01*
X984967Y514210D01*
X993092D01*
X993750Y514123D01*
X1001495D01*
X1004349Y511269D01*
Y504768D01*
X1003079Y504515D01*
X1002643Y505568D01*
X1000874Y507874D01*
X998568Y509643D01*
X995882Y510756D01*
X993000Y511135D01*
X990118Y510756D01*
X987432Y509643D01*
X985126Y507874D01*
X983357Y505568D01*
X982244Y502882D01*
X981865Y500000D01*
X981931Y499497D01*
X981925Y499465D01*
X981933Y498929D01*
X981902Y498523D01*
X981836Y498130D01*
X981733Y497743D01*
X981591Y497357D01*
X981407Y496968D01*
X981245Y496688D01*
X938326D01*
X938280Y496751D01*
X937653Y497812D01*
X937377Y498376D01*
X935961Y502097D01*
X935784Y502665D01*
X935756Y502882D01*
X934643Y505568D01*
X932874Y507874D01*
X930568Y509643D01*
X927882Y510756D01*
X925000Y511135D01*
X922118Y510756D01*
X919432Y509643D01*
X917126Y507874D01*
X915357Y505568D01*
X914244Y502882D01*
X913865Y500000D01*
X913967Y499225D01*
X913953Y499153D01*
X913970Y499066D01*
X913958Y498979D01*
X914011Y498194D01*
X914010Y497545D01*
X913963Y496950D01*
X913874Y496405D01*
X913747Y495908D01*
X913583Y495451D01*
X913493Y495260D01*
X869847D01*
X869777Y495381D01*
X869542Y495892D01*
X869319Y496491D01*
X869115Y497179D01*
X868941Y497926D01*
X868652Y499797D01*
X868634Y499994D01*
X868635Y500000D01*
X868631Y500032D01*
X868557Y500847D01*
X868497Y501050D01*
X868256Y502882D01*
X867143Y505568D01*
X865374Y507874D01*
X863068Y509643D01*
X860382Y510756D01*
X857500Y511135D01*
X854618Y510756D01*
X851932Y509643D01*
X849626Y507874D01*
X847857Y505568D01*
X846744Y502882D01*
X846365Y500000D01*
X846744Y497118D01*
X846860Y496838D01*
X846982Y496335D01*
X847087Y495700D01*
X847126Y495219D01*
X846855Y493990D01*
X820824D01*
X820824Y493990D01*
X819089Y493645D01*
X817619Y492663D01*
X734124Y409168D01*
X733142Y407698D01*
X732797Y405963D01*
Y403808D01*
X729445Y400457D01*
X728476D01*
X726742Y400112D01*
X725271Y399129D01*
X722252Y396110D01*
X722230Y396090D01*
X716250D01*
X715259Y395893D01*
X714419Y395331D01*
X714219Y395032D01*
X703281D01*
X703081Y395331D01*
X702241Y395893D01*
X701250Y396090D01*
X688750D01*
X687759Y395893D01*
X686919Y395331D01*
X686357Y394491D01*
X686160Y393500D01*
Y383500D01*
X686205Y383275D01*
X686200Y383045D01*
X686303Y382784D01*
X686357Y382509D01*
X686369Y382491D01*
X686839Y381500D01*
X686369Y380509D01*
X686357Y380491D01*
X686313Y380266D01*
X686220Y380055D01*
X686215Y379775D01*
X686160Y379500D01*
Y373500D01*
X686357Y372509D01*
X686919Y371669D01*
X687759Y371107D01*
X688750Y370910D01*
X695543D01*
X703514Y362939D01*
X703514Y362939D01*
X705016Y361936D01*
X706787Y361584D01*
X706788Y361584D01*
X707646D01*
X715717Y353512D01*
X694629Y332424D01*
X693626Y330923D01*
X693273Y329151D01*
X693273Y329151D01*
Y324543D01*
X692982Y324378D01*
X692520Y324169D01*
X691986Y323984D01*
X691379Y323825D01*
X690735Y323704D01*
X689074Y323551D01*
X688408Y323543D01*
X688100Y323583D01*
X685283Y323212D01*
X682658Y322125D01*
X680405Y320396D01*
X678675Y318142D01*
X677588Y315517D01*
X677217Y312700D01*
X677588Y309883D01*
X678675Y307258D01*
X680405Y305005D01*
X682658Y303275D01*
X685283Y302188D01*
X688100Y301817D01*
X690917Y302188D01*
X693542Y303275D01*
X695796Y305005D01*
X697525Y307258D01*
X698612Y309883D01*
X698983Y312700D01*
X698943Y313008D01*
X698952Y313710D01*
X699005Y314541D01*
X699097Y315298D01*
X699225Y315979D01*
X699384Y316586D01*
X699569Y317120D01*
X699777Y317582D01*
X700004Y317980D01*
X700200Y318253D01*
X700743Y318797D01*
X701549Y318754D01*
X702075Y318604D01*
X702211Y318510D01*
X702297Y318353D01*
X702473Y317927D01*
X702619Y317441D01*
X702731Y316888D01*
X702803Y316263D01*
X702830Y315567D01*
X702808Y314800D01*
X702727Y313893D01*
X702748Y313696D01*
X702617Y312700D01*
X702988Y309883D01*
X704075Y307258D01*
X705805Y305005D01*
X708058Y303275D01*
X710683Y302188D01*
X713500Y301817D01*
X716317Y302188D01*
X718942Y303275D01*
X721196Y305005D01*
X722925Y307258D01*
X724012Y309883D01*
X724383Y312700D01*
X724012Y315517D01*
X722925Y318142D01*
X721196Y320396D01*
X718942Y322125D01*
X716317Y323212D01*
X714834Y323408D01*
X714598Y323484D01*
X713619Y323598D01*
X711867Y323916D01*
X711167Y324099D01*
X710620Y324277D01*
X710472Y324553D01*
X710278Y325640D01*
X710318Y325771D01*
X730420Y345873D01*
X730420Y345873D01*
X731423Y347375D01*
X731776Y349147D01*
Y352564D01*
X750122Y370910D01*
X761250D01*
X762241Y371107D01*
X763081Y371669D01*
X763643Y372509D01*
X763840Y373500D01*
Y379500D01*
X763785Y379775D01*
X763780Y380055D01*
X763687Y380266D01*
X763643Y380491D01*
X763631Y380509D01*
X763161Y381500D01*
X763631Y382491D01*
X763643Y382509D01*
X763697Y382784D01*
X763800Y383045D01*
X763795Y383275D01*
X763840Y383500D01*
Y385968D01*
X773660D01*
Y383500D01*
X773705Y383275D01*
X773700Y383045D01*
X773803Y382784D01*
X773857Y382509D01*
X773869Y382491D01*
X774339Y381500D01*
X773869Y380509D01*
X773857Y380491D01*
X773813Y380266D01*
X773720Y380055D01*
X773715Y379775D01*
X773660Y379500D01*
Y377207D01*
X747727Y351273D01*
X746723Y349771D01*
X746371Y348000D01*
X746371Y348000D01*
Y326000D01*
X746371Y326000D01*
X746723Y324229D01*
X747727Y322727D01*
X752200Y318253D01*
X752396Y317980D01*
X752623Y317582D01*
X752831Y317120D01*
X753016Y316586D01*
X753175Y315979D01*
X753296Y315335D01*
X753448Y313675D01*
X753457Y313008D01*
X753417Y312700D01*
X753788Y309883D01*
X754875Y307258D01*
X756605Y305005D01*
X758858Y303275D01*
X761483Y302188D01*
X764300Y301817D01*
X767117Y302188D01*
X769742Y303275D01*
X771995Y305005D01*
X773725Y307258D01*
X774812Y309883D01*
X775183Y312700D01*
X774812Y315517D01*
X773725Y318142D01*
X771995Y320396D01*
X769742Y322125D01*
X767117Y323212D01*
X764300Y323583D01*
X763992Y323543D01*
X763290Y323552D01*
X762459Y323605D01*
X761702Y323697D01*
X761021Y323825D01*
X760414Y323984D01*
X759880Y324169D01*
X759418Y324377D01*
X759020Y324604D01*
X758747Y324800D01*
X755629Y327917D01*
Y346083D01*
X780457Y370910D01*
X788750D01*
X789741Y371107D01*
X790581Y371669D01*
X791143Y372509D01*
X791340Y373500D01*
Y379500D01*
X791285Y379775D01*
X791280Y380055D01*
X791188Y380266D01*
X791143Y380491D01*
X791131Y380509D01*
X790661Y381500D01*
X791131Y382491D01*
X791143Y382509D01*
X791197Y382784D01*
X791300Y383045D01*
X791295Y383275D01*
X791340Y383500D01*
Y393500D01*
X791143Y394491D01*
X790581Y395331D01*
X789741Y395893D01*
X788750Y396090D01*
X776250D01*
X775259Y395893D01*
X774419Y395331D01*
X774219Y395032D01*
X763281D01*
X763081Y395331D01*
X762241Y395893D01*
X761250Y396090D01*
X755305D01*
X755033Y396325D01*
X752229Y399129D01*
X750758Y400112D01*
X750004Y400262D01*
X748510Y401755D01*
X825331Y478576D01*
X845780D01*
X846142Y478231D01*
X846668Y477368D01*
X846662Y477333D01*
X846664Y477273D01*
X846365Y475000D01*
X846744Y472118D01*
X847857Y469432D01*
X849626Y467126D01*
X851932Y465357D01*
X854618Y464244D01*
X857500Y463865D01*
X860382Y464244D01*
X863068Y465357D01*
X865374Y467126D01*
X867143Y469432D01*
X868256Y472118D01*
X868635Y475000D01*
X868559Y475579D01*
X868567Y475620D01*
X868556Y475676D01*
X868565Y475732D01*
X868527Y476590D01*
X868542Y477312D01*
X868602Y477975D01*
X868704Y478578D01*
X868844Y479124D01*
X869018Y479618D01*
X869124Y479846D01*
X913376D01*
X913482Y479618D01*
X913656Y479124D01*
X913796Y478578D01*
X913898Y477975D01*
X913958Y477312D01*
X913972Y476590D01*
X913935Y475732D01*
X913944Y475676D01*
X913933Y475620D01*
X913941Y475579D01*
X913865Y475000D01*
X914244Y472118D01*
X915357Y469432D01*
X917126Y467126D01*
X919432Y465357D01*
X922118Y464244D01*
X925000Y463865D01*
X927882Y464244D01*
X930568Y465357D01*
X932874Y467126D01*
X934643Y469432D01*
X935756Y472118D01*
X936135Y475000D01*
X936092Y475326D01*
X936101Y476092D01*
X936155Y476996D01*
X936248Y477816D01*
X936377Y478553D01*
X936539Y479205D01*
X936727Y479773D01*
X936936Y480258D01*
X937161Y480666D01*
X937363Y480954D01*
X937627Y481218D01*
X980373D01*
X980637Y480954D01*
X980839Y480666D01*
X981064Y480258D01*
X981273Y479773D01*
X981461Y479205D01*
X981622Y478553D01*
X981746Y477852D01*
X981899Y476059D01*
X981908Y475326D01*
X981865Y475000D01*
X982244Y472118D01*
X983357Y469432D01*
X985126Y467126D01*
X987432Y465357D01*
X990118Y464244D01*
X993000Y463865D01*
X995882Y464244D01*
X998568Y465357D01*
X1000874Y467126D01*
X1002643Y469432D01*
X1003079Y470485D01*
X1004349Y470232D01*
Y446917D01*
X880259Y322827D01*
X858108D01*
X851290Y323045D01*
Y323490D01*
X848816D01*
X848719Y323509D01*
X848660Y323497D01*
X848599Y323507D01*
X848533Y323490D01*
X832377D01*
X832281Y323509D01*
X832219Y323497D01*
X832156Y323506D01*
X831816Y323490D01*
X829710D01*
Y323389D01*
X818758Y322864D01*
X817917Y323212D01*
X815100Y323583D01*
X812283Y323212D01*
X809658Y322125D01*
X807404Y320396D01*
X805675Y318142D01*
X804588Y315517D01*
X804217Y312700D01*
X804588Y309883D01*
X805675Y307258D01*
X807404Y305005D01*
X809658Y303275D01*
X812283Y302188D01*
X815100Y301817D01*
X817917Y302188D01*
X818848Y302573D01*
X822892D01*
X829710Y302355D01*
Y301910D01*
X832184D01*
X832281Y301891D01*
X832340Y301903D01*
X832401Y301894D01*
X832467Y301910D01*
X848623D01*
X848719Y301891D01*
X848781Y301903D01*
X848844Y301894D01*
X849184Y301910D01*
X851290D01*
Y302011D01*
X863013Y302573D01*
X884454D01*
X884454Y302573D01*
X886620Y302859D01*
X886914Y302567D01*
X887313Y301701D01*
X885763Y299813D01*
X884181Y296852D01*
X883207Y293640D01*
X882878Y290300D01*
X883207Y286960D01*
X884181Y283748D01*
X885763Y280787D01*
X887893Y278193D01*
X890487Y276063D01*
X893447Y274481D01*
X896660Y273507D01*
X900000Y273178D01*
X903340Y273507D01*
X906553Y274481D01*
X909513Y276063D01*
X912107Y278193D01*
X914237Y280787D01*
X915819Y283748D01*
X916793Y286960D01*
X917122Y290300D01*
X916793Y293640D01*
X915819Y296852D01*
X914237Y299813D01*
X912107Y302407D01*
X909513Y304537D01*
X906553Y306119D01*
X903340Y307093D01*
X900000Y307422D01*
X896660Y307093D01*
X894227Y306355D01*
X893554Y307478D01*
X1021637Y435561D01*
X1021637Y435561D01*
X1023246Y437659D01*
X1024258Y440101D01*
X1024603Y442722D01*
Y515463D01*
X1024603Y515463D01*
X1024258Y518084D01*
X1023246Y520527D01*
X1021637Y522624D01*
X1021637Y522624D01*
X1012850Y531411D01*
X1010752Y533020D01*
X1008310Y534032D01*
X1005689Y534377D01*
X1005689Y534377D01*
X1003790D01*
Y535790D01*
X984877D01*
X984781Y535809D01*
D02*
G37*
G36*
X713322Y554724D02*
X695822D01*
X692875Y554336D01*
X690128Y553199D01*
X687770Y551389D01*
X685960Y549031D01*
X684822Y546284D01*
X684434Y543337D01*
Y525837D01*
X684822Y522890D01*
X685960Y520143D01*
X687770Y517785D01*
X690128Y515975D01*
X692875Y514838D01*
X695822Y514450D01*
X713322D01*
X716269Y514838D01*
X719016Y515975D01*
X721374Y517785D01*
X723184Y520143D01*
X724321Y522890D01*
X724709Y525837D01*
Y543337D01*
X724321Y546284D01*
X723184Y549031D01*
X721374Y551389D01*
X719016Y553199D01*
X716269Y554336D01*
X713322Y554724D01*
D02*
G37*
G36*
X175000Y525883D02*
X172183Y525512D01*
X169559Y524425D01*
X167304Y522696D01*
X165575Y520442D01*
X164488Y517817D01*
X164117Y515000D01*
X164488Y512183D01*
X165575Y509558D01*
X167304Y507304D01*
X169559Y505575D01*
X172183Y504488D01*
X175000Y504117D01*
X177817Y504488D01*
X180441Y505575D01*
X182696Y507304D01*
X184425Y509558D01*
X185512Y512183D01*
X185883Y515000D01*
X185512Y517817D01*
X184425Y520442D01*
X182696Y522696D01*
X180441Y524425D01*
X177817Y525512D01*
X175000Y525883D01*
D02*
G37*
G36*
X1071477Y487590D02*
X1068523D01*
X1068272Y487540D01*
X1068017D01*
X1065119Y486964D01*
X1064884Y486866D01*
X1064634Y486816D01*
X1061904Y485685D01*
X1061692Y485544D01*
X1061456Y485446D01*
X1058999Y483805D01*
X1058819Y483624D01*
X1058607Y483483D01*
X1056517Y481393D01*
X1056376Y481181D01*
X1056195Y481001D01*
X1054554Y478544D01*
X1054456Y478308D01*
X1054314Y478096D01*
X1053184Y475366D01*
X1053134Y475116D01*
X1053036Y474881D01*
X1052460Y471983D01*
Y471727D01*
X1052410Y471477D01*
Y468523D01*
X1052460Y468272D01*
Y468017D01*
X1053036Y465119D01*
X1053134Y464884D01*
X1053184Y464634D01*
X1054314Y461904D01*
X1054456Y461692D01*
X1054554Y461456D01*
X1056195Y458999D01*
X1056376Y458819D01*
X1056517Y458607D01*
X1058607Y456517D01*
X1058819Y456376D01*
X1058999Y456195D01*
X1061456Y454554D01*
X1061692Y454456D01*
X1061904Y454314D01*
X1064634Y453184D01*
X1064884Y453134D01*
X1065119Y453036D01*
X1068017Y452460D01*
X1068272D01*
X1068523Y452410D01*
X1071477D01*
X1071728Y452460D01*
X1071983D01*
X1074881Y453036D01*
X1075116Y453134D01*
X1075366Y453184D01*
X1078096Y454314D01*
X1078308Y454456D01*
X1078544Y454554D01*
X1081001Y456195D01*
X1081181Y456376D01*
X1081393Y456517D01*
X1083483Y458607D01*
X1083624Y458819D01*
X1083804Y458999D01*
X1085446Y461456D01*
X1085544Y461692D01*
X1085685Y461904D01*
X1086816Y464634D01*
X1086866Y464884D01*
X1086964Y465119D01*
X1087540Y468017D01*
Y468272D01*
X1087590Y468523D01*
Y471477D01*
X1087540Y471727D01*
Y471983D01*
X1086964Y474881D01*
X1086866Y475116D01*
X1086816Y475366D01*
X1085685Y478096D01*
X1085544Y478308D01*
X1085446Y478544D01*
X1083804Y481001D01*
X1083624Y481181D01*
X1083483Y481393D01*
X1081393Y483483D01*
X1081181Y483624D01*
X1081001Y483805D01*
X1078544Y485446D01*
X1078308Y485544D01*
X1078096Y485685D01*
X1075366Y486816D01*
X1075116Y486866D01*
X1074881Y486964D01*
X1071983Y487540D01*
X1071728D01*
X1071477Y487590D01*
D02*
G37*
G36*
X31477D02*
X28523D01*
X28272Y487540D01*
X28017D01*
X25119Y486964D01*
X24884Y486866D01*
X24634Y486816D01*
X21904Y485685D01*
X21692Y485544D01*
X21456Y485446D01*
X18999Y483805D01*
X18819Y483624D01*
X18607Y483483D01*
X16517Y481393D01*
X16376Y481181D01*
X16195Y481001D01*
X14554Y478544D01*
X14456Y478308D01*
X14315Y478096D01*
X13184Y475366D01*
X13134Y475116D01*
X13036Y474881D01*
X12460Y471983D01*
Y471727D01*
X12410Y471477D01*
Y468523D01*
X12460Y468272D01*
Y468017D01*
X13036Y465119D01*
X13134Y464884D01*
X13184Y464634D01*
X14315Y461904D01*
X14456Y461692D01*
X14554Y461456D01*
X16195Y458999D01*
X16376Y458819D01*
X16517Y458607D01*
X18607Y456517D01*
X18819Y456376D01*
X18999Y456195D01*
X21456Y454554D01*
X21692Y454456D01*
X21904Y454314D01*
X24634Y453184D01*
X24884Y453134D01*
X25119Y453036D01*
X28017Y452460D01*
X28272D01*
X28523Y452410D01*
X31477D01*
X31727Y452460D01*
X31983D01*
X34880Y453036D01*
X35116Y453134D01*
X35366Y453184D01*
X38096Y454314D01*
X38308Y454456D01*
X38544Y454554D01*
X41001Y456195D01*
X41181Y456376D01*
X41393Y456517D01*
X43482Y458607D01*
X43624Y458819D01*
X43804Y458999D01*
X45446Y461456D01*
X45544Y461692D01*
X45685Y461904D01*
X46816Y464634D01*
X46866Y464884D01*
X46964Y465119D01*
X47540Y468017D01*
Y468272D01*
X47590Y468523D01*
Y471477D01*
X47540Y471727D01*
Y471983D01*
X46964Y474881D01*
X46866Y475116D01*
X46816Y475366D01*
X45685Y478096D01*
X45544Y478308D01*
X45446Y478544D01*
X43804Y481001D01*
X43624Y481181D01*
X43482Y481393D01*
X41393Y483483D01*
X41181Y483624D01*
X41001Y483805D01*
X38544Y485446D01*
X38308Y485544D01*
X38096Y485685D01*
X35366Y486816D01*
X35116Y486866D01*
X34880Y486964D01*
X31983Y487540D01*
X31727D01*
X31477Y487590D01*
D02*
G37*
G36*
X200000Y525883D02*
X197183Y525512D01*
X194559Y524425D01*
X192304Y522696D01*
X190575Y520442D01*
X189488Y517817D01*
X189117Y515000D01*
X189488Y512183D01*
X190575Y509558D01*
X192304Y507304D01*
X194559Y505575D01*
X197183Y504488D01*
X200000Y504117D01*
X200321Y504159D01*
X201217Y504154D01*
X203237Y504027D01*
X204032Y503920D01*
X204743Y503782D01*
X205338Y503623D01*
X205814Y503452D01*
X206167Y503283D01*
X206398Y503137D01*
X227768Y481768D01*
X229021Y480930D01*
X230500Y480636D01*
X253899D01*
X344268Y390268D01*
X344268Y390268D01*
X345521Y389430D01*
X347000Y389136D01*
X347000Y389136D01*
X455377D01*
X455447Y389124D01*
X455622Y389078D01*
X455823Y389003D01*
X456053Y388893D01*
X456311Y388744D01*
X456563Y388573D01*
X457259Y387998D01*
X457555Y387710D01*
X457622Y387622D01*
X459198Y386414D01*
X461032Y385654D01*
X463000Y385395D01*
X464968Y385654D01*
X466802Y386414D01*
X468378Y387622D01*
X469586Y389198D01*
X470346Y391032D01*
X470605Y393000D01*
X470346Y394968D01*
X469586Y396802D01*
X468378Y398378D01*
X466802Y399586D01*
X464968Y400346D01*
X463000Y400605D01*
X461032Y400346D01*
X459198Y399586D01*
X457622Y398378D01*
X457555Y398290D01*
X457233Y397976D01*
X456903Y397688D01*
X456595Y397449D01*
X456311Y397256D01*
X456053Y397107D01*
X455823Y396997D01*
X455622Y396922D01*
X455447Y396876D01*
X455377Y396864D01*
X348601D01*
X258232Y487233D01*
X256979Y488070D01*
X255500Y488364D01*
X232101D01*
X211863Y508602D01*
X211717Y508833D01*
X211548Y509187D01*
X211377Y509662D01*
X211218Y510257D01*
X211080Y510969D01*
X210973Y511763D01*
X210846Y513783D01*
X210841Y514679D01*
X210883Y515000D01*
X210512Y517817D01*
X209425Y520442D01*
X207696Y522696D01*
X205441Y524425D01*
X202817Y525512D01*
X200000Y525883D01*
D02*
G37*
G36*
X851477Y417590D02*
X848523D01*
X848272Y417540D01*
X848017D01*
X845119Y416964D01*
X844884Y416866D01*
X844634Y416816D01*
X841904Y415685D01*
X841692Y415544D01*
X841456Y415446D01*
X838999Y413805D01*
X838819Y413624D01*
X838607Y413483D01*
X836517Y411393D01*
X836376Y411181D01*
X836195Y411001D01*
X834554Y408544D01*
X834456Y408308D01*
X834314Y408096D01*
X833184Y405366D01*
X833134Y405116D01*
X833036Y404880D01*
X832460Y401983D01*
Y401727D01*
X832410Y401477D01*
Y398523D01*
X832460Y398272D01*
Y398017D01*
X833036Y395119D01*
X833134Y394884D01*
X833184Y394634D01*
X834314Y391904D01*
X834456Y391692D01*
X834554Y391456D01*
X836195Y388999D01*
X836376Y388819D01*
X836517Y388607D01*
X838607Y386517D01*
X838819Y386376D01*
X838999Y386195D01*
X841456Y384554D01*
X841692Y384456D01*
X841904Y384314D01*
X844634Y383184D01*
X844884Y383134D01*
X845119Y383036D01*
X848017Y382460D01*
X848272D01*
X848523Y382410D01*
X851477D01*
X851728Y382460D01*
X851983D01*
X854881Y383036D01*
X855116Y383134D01*
X855366Y383184D01*
X858096Y384314D01*
X858308Y384456D01*
X858544Y384554D01*
X861001Y386195D01*
X861181Y386376D01*
X861393Y386517D01*
X863483Y388607D01*
X863624Y388819D01*
X863804Y388999D01*
X865446Y391456D01*
X865544Y391692D01*
X865685Y391904D01*
X866816Y394634D01*
X866866Y394884D01*
X866964Y395119D01*
X867540Y398017D01*
Y398272D01*
X867590Y398523D01*
Y401477D01*
X867540Y401727D01*
Y401983D01*
X866964Y404881D01*
X866866Y405116D01*
X866816Y405366D01*
X865685Y408096D01*
X865544Y408308D01*
X865446Y408544D01*
X863804Y411001D01*
X863624Y411181D01*
X863483Y411393D01*
X861393Y413483D01*
X861181Y413624D01*
X861001Y413805D01*
X858544Y415446D01*
X858308Y415544D01*
X858096Y415685D01*
X855366Y416816D01*
X855116Y416866D01*
X854881Y416964D01*
X851983Y417540D01*
X851728D01*
X851477Y417590D01*
D02*
G37*
G36*
X251477D02*
X248523D01*
X248272Y417540D01*
X248017D01*
X245119Y416964D01*
X244884Y416866D01*
X244634Y416816D01*
X241904Y415685D01*
X241692Y415544D01*
X241456Y415446D01*
X238999Y413805D01*
X238819Y413624D01*
X238607Y413483D01*
X236518Y411393D01*
X236376Y411181D01*
X236195Y411001D01*
X234554Y408544D01*
X234456Y408308D01*
X234314Y408096D01*
X233184Y405366D01*
X233134Y405116D01*
X233036Y404880D01*
X232460Y401983D01*
Y401727D01*
X232410Y401477D01*
Y398523D01*
X232460Y398272D01*
Y398017D01*
X233036Y395119D01*
X233134Y394884D01*
X233184Y394634D01*
X234314Y391904D01*
X234456Y391692D01*
X234554Y391456D01*
X236195Y388999D01*
X236376Y388819D01*
X236518Y388607D01*
X238607Y386517D01*
X238819Y386376D01*
X238999Y386195D01*
X241456Y384554D01*
X241692Y384456D01*
X241904Y384314D01*
X244634Y383184D01*
X244884Y383134D01*
X245119Y383036D01*
X248017Y382460D01*
X248272D01*
X248523Y382410D01*
X251477D01*
X251728Y382460D01*
X251983D01*
X254881Y383036D01*
X255116Y383134D01*
X255366Y383184D01*
X258096Y384314D01*
X258308Y384456D01*
X258544Y384554D01*
X261001Y386195D01*
X261181Y386376D01*
X261393Y386517D01*
X263482Y388607D01*
X263624Y388819D01*
X263805Y388999D01*
X265446Y391456D01*
X265544Y391692D01*
X265685Y391904D01*
X266816Y394634D01*
X266866Y394884D01*
X266964Y395119D01*
X267540Y398017D01*
Y398272D01*
X267590Y398523D01*
Y401477D01*
X267540Y401727D01*
Y401983D01*
X266964Y404881D01*
X266866Y405116D01*
X266816Y405366D01*
X265685Y408096D01*
X265544Y408308D01*
X265446Y408544D01*
X263805Y411001D01*
X263624Y411181D01*
X263482Y411393D01*
X261393Y413483D01*
X261181Y413624D01*
X261001Y413805D01*
X258544Y415446D01*
X258308Y415544D01*
X258096Y415685D01*
X255366Y416816D01*
X255116Y416866D01*
X254881Y416964D01*
X251983Y417540D01*
X251728D01*
X251477Y417590D01*
D02*
G37*
G36*
X789700Y323583D02*
X786883Y323212D01*
X784258Y322125D01*
X782004Y320396D01*
X780275Y318142D01*
X779188Y315517D01*
X778817Y312700D01*
X779188Y309883D01*
X780275Y307258D01*
X782004Y305005D01*
X784258Y303275D01*
X786883Y302188D01*
X789700Y301817D01*
X792517Y302188D01*
X795142Y303275D01*
X797395Y305005D01*
X799125Y307258D01*
X800212Y309883D01*
X800583Y312700D01*
X800212Y315517D01*
X799125Y318142D01*
X797395Y320396D01*
X795142Y322125D01*
X792517Y323212D01*
X789700Y323583D01*
D02*
G37*
G36*
X738900D02*
X736083Y323212D01*
X733458Y322125D01*
X731205Y320396D01*
X729475Y318142D01*
X728388Y315517D01*
X728017Y312700D01*
X728388Y309883D01*
X729475Y307258D01*
X731205Y305005D01*
X733458Y303275D01*
X736083Y302188D01*
X738900Y301817D01*
X741717Y302188D01*
X744342Y303275D01*
X746596Y305005D01*
X748325Y307258D01*
X749412Y309883D01*
X749783Y312700D01*
X749412Y315517D01*
X748325Y318142D01*
X746596Y320396D01*
X744342Y322125D01*
X741717Y323212D01*
X738900Y323583D01*
D02*
G37*
G36*
X653772Y554724D02*
X649843Y554337D01*
X646066Y553191D01*
X642584Y551330D01*
X639533Y548826D01*
X637029Y545774D01*
X635168Y542293D01*
X634022Y538516D01*
X633635Y534587D01*
X634022Y530658D01*
X635168Y526881D01*
X637029Y523400D01*
X639533Y520348D01*
X642584Y517844D01*
X646066Y515983D01*
X649843Y514837D01*
X653772Y514450D01*
X656801Y514748D01*
X658037Y513732D01*
X658071Y513622D01*
Y325183D01*
X658016Y324851D01*
X657895Y324410D01*
X657715Y323935D01*
X657469Y323427D01*
X657152Y322885D01*
X656782Y322344D01*
X655716Y321062D01*
X655251Y320584D01*
X655005Y320396D01*
X653275Y318142D01*
X652188Y315517D01*
X651817Y312700D01*
X652188Y309883D01*
X653275Y307258D01*
X655005Y305005D01*
X657258Y303275D01*
X659883Y302188D01*
X662700Y301817D01*
X665517Y302188D01*
X668142Y303275D01*
X670396Y305005D01*
X672125Y307258D01*
X673212Y309883D01*
X673583Y312700D01*
X673212Y315517D01*
X672125Y318142D01*
X670396Y320396D01*
X670149Y320584D01*
X669659Y321088D01*
X669110Y321713D01*
X668640Y322313D01*
X668248Y322885D01*
X667931Y323427D01*
X667685Y323935D01*
X667505Y324410D01*
X667384Y324851D01*
X667329Y325183D01*
Y516864D01*
X666977Y518636D01*
X666604Y519193D01*
X668011Y520348D01*
X670515Y523400D01*
X672376Y526881D01*
X673522Y530658D01*
X673909Y534587D01*
X673522Y538516D01*
X672376Y542293D01*
X670515Y545774D01*
X668011Y548826D01*
X664959Y551330D01*
X661478Y553191D01*
X657700Y554337D01*
X653772Y554724D01*
D02*
G37*
G36*
X460000Y543635D02*
X457118Y543256D01*
X454432Y542143D01*
X452126Y540374D01*
X450357Y538068D01*
X449244Y535382D01*
X448865Y532500D01*
X449244Y529618D01*
X450357Y526932D01*
X452126Y524626D01*
X452386Y524427D01*
X452902Y523898D01*
X453483Y523239D01*
X453980Y522608D01*
X454396Y522007D01*
X454732Y521439D01*
X454993Y520907D01*
X455184Y520414D01*
X455312Y519958D01*
X455371Y519607D01*
Y514628D01*
X455371Y514628D01*
X455723Y512856D01*
X456727Y511354D01*
X632671Y335410D01*
Y325183D01*
X632616Y324851D01*
X632495Y324410D01*
X632315Y323935D01*
X632069Y323427D01*
X631753Y322885D01*
X631382Y322344D01*
X630316Y321062D01*
X629851Y320584D01*
X629604Y320396D01*
X627875Y318142D01*
X626788Y315517D01*
X626417Y312700D01*
X626788Y309883D01*
X627875Y307258D01*
X629604Y305005D01*
X631858Y303275D01*
X634483Y302188D01*
X637300Y301817D01*
X640117Y302188D01*
X642742Y303275D01*
X644995Y305005D01*
X646725Y307258D01*
X647812Y309883D01*
X648183Y312700D01*
X647812Y315517D01*
X646725Y318142D01*
X644995Y320396D01*
X644749Y320584D01*
X644259Y321088D01*
X643710Y321713D01*
X643240Y322313D01*
X642848Y322885D01*
X642531Y323427D01*
X642285Y323935D01*
X642105Y324410D01*
X641984Y324851D01*
X641929Y325183D01*
Y337327D01*
X641929Y337328D01*
X641577Y339099D01*
X640573Y340601D01*
X640573Y340601D01*
X464629Y516545D01*
Y519607D01*
X464688Y519958D01*
X464816Y520414D01*
X465007Y520907D01*
X465268Y521439D01*
X465604Y522007D01*
X465999Y522578D01*
X467123Y523923D01*
X467615Y524427D01*
X467874Y524626D01*
X469643Y526932D01*
X470756Y529618D01*
X471135Y532500D01*
X470756Y535382D01*
X469643Y538068D01*
X467874Y540374D01*
X465568Y542143D01*
X462882Y543256D01*
X460000Y543635D01*
D02*
G37*
G36*
X611900Y323583D02*
X609083Y323212D01*
X606458Y322125D01*
X604204Y320396D01*
X602475Y318142D01*
X601388Y315517D01*
X601017Y312700D01*
X601388Y309883D01*
X602475Y307258D01*
X604204Y305005D01*
X606458Y303275D01*
X609083Y302188D01*
X611900Y301817D01*
X614717Y302188D01*
X617342Y303275D01*
X619595Y305005D01*
X621325Y307258D01*
X622412Y309883D01*
X622783Y312700D01*
X622412Y315517D01*
X621325Y318142D01*
X619595Y320396D01*
X617342Y322125D01*
X614717Y323212D01*
X611900Y323583D01*
D02*
G37*
G36*
X586500D02*
X583683Y323212D01*
X581058Y322125D01*
X578805Y320396D01*
X577075Y318142D01*
X575988Y315517D01*
X575617Y312700D01*
X575988Y309883D01*
X577075Y307258D01*
X578805Y305005D01*
X581058Y303275D01*
X583683Y302188D01*
X586500Y301817D01*
X589317Y302188D01*
X591942Y303275D01*
X594196Y305005D01*
X595925Y307258D01*
X597012Y309883D01*
X597383Y312700D01*
X597012Y315517D01*
X595925Y318142D01*
X594196Y320396D01*
X591942Y322125D01*
X589317Y323212D01*
X586500Y323583D01*
D02*
G37*
G36*
X435000Y543635D02*
X432118Y543256D01*
X429432Y542143D01*
X427126Y540374D01*
X425357Y538068D01*
X424244Y535382D01*
X423865Y532500D01*
X424244Y529618D01*
X425357Y526932D01*
X427126Y524626D01*
X427386Y524427D01*
X427902Y523898D01*
X428483Y523239D01*
X428980Y522608D01*
X429396Y522007D01*
X429732Y521439D01*
X429993Y520907D01*
X430184Y520414D01*
X430312Y519958D01*
X430371Y519607D01*
Y507000D01*
X430371Y507000D01*
X430723Y505229D01*
X431727Y503727D01*
X556471Y378983D01*
Y325183D01*
X556416Y324851D01*
X556295Y324410D01*
X556115Y323935D01*
X555869Y323427D01*
X555552Y322885D01*
X555182Y322344D01*
X554116Y321062D01*
X553651Y320584D01*
X553405Y320396D01*
X551675Y318142D01*
X550588Y315517D01*
X550217Y312700D01*
X550588Y309883D01*
X551675Y307258D01*
X553405Y305005D01*
X555658Y303275D01*
X558283Y302188D01*
X561100Y301817D01*
X563917Y302188D01*
X566542Y303275D01*
X568796Y305005D01*
X570525Y307258D01*
X571612Y309883D01*
X571983Y312700D01*
X571612Y315517D01*
X570525Y318142D01*
X568796Y320396D01*
X568549Y320584D01*
X568059Y321088D01*
X567510Y321713D01*
X567040Y322313D01*
X566648Y322885D01*
X566331Y323427D01*
X566085Y323935D01*
X565905Y324410D01*
X565784Y324851D01*
X565729Y325183D01*
Y380900D01*
X565729Y380900D01*
X565377Y382671D01*
X564373Y384173D01*
X439629Y508917D01*
Y519607D01*
X439688Y519958D01*
X439816Y520414D01*
X440007Y520907D01*
X440268Y521439D01*
X440604Y522007D01*
X440999Y522578D01*
X442123Y523923D01*
X442615Y524427D01*
X442874Y524626D01*
X444643Y526932D01*
X445756Y529618D01*
X446135Y532500D01*
X445756Y535382D01*
X444643Y538068D01*
X442874Y540374D01*
X440568Y542143D01*
X437882Y543256D01*
X435000Y543635D01*
D02*
G37*
G36*
X535700Y323583D02*
X532883Y323212D01*
X530258Y322125D01*
X528004Y320396D01*
X526275Y318142D01*
X525188Y315517D01*
X524817Y312700D01*
X525188Y309883D01*
X526275Y307258D01*
X528004Y305005D01*
X530258Y303275D01*
X532883Y302188D01*
X535700Y301817D01*
X538517Y302188D01*
X541142Y303275D01*
X543396Y305005D01*
X545125Y307258D01*
X546212Y309883D01*
X546583Y312700D01*
X546212Y315517D01*
X545125Y318142D01*
X543396Y320396D01*
X541142Y322125D01*
X538517Y323212D01*
X535700Y323583D01*
D02*
G37*
G36*
X400000Y307422D02*
X396660Y307093D01*
X393447Y306119D01*
X390487Y304537D01*
X387893Y302407D01*
X385763Y299813D01*
X384181Y296852D01*
X383206Y293640D01*
X382878Y290300D01*
X383206Y286960D01*
X384181Y283748D01*
X385763Y280787D01*
X387893Y278193D01*
X390487Y276063D01*
X393447Y274481D01*
X396660Y273507D01*
X400000Y273178D01*
X403340Y273507D01*
X406553Y274481D01*
X409513Y276063D01*
X412107Y278193D01*
X414237Y280787D01*
X415819Y283748D01*
X416793Y286960D01*
X417122Y290300D01*
X416793Y293640D01*
X415819Y296852D01*
X414237Y299813D01*
X412107Y302407D01*
X409513Y304537D01*
X406553Y306119D01*
X403340Y307093D01*
X400000Y307422D01*
D02*
G37*
G36*
X1071477Y167590D02*
X1068523D01*
X1068272Y167540D01*
X1068017D01*
X1065119Y166964D01*
X1064884Y166866D01*
X1064634Y166816D01*
X1061904Y165685D01*
X1061692Y165544D01*
X1061456Y165446D01*
X1058999Y163804D01*
X1058819Y163624D01*
X1058607Y163482D01*
X1056517Y161393D01*
X1056376Y161181D01*
X1056195Y161001D01*
X1054554Y158544D01*
X1054456Y158308D01*
X1054314Y158096D01*
X1053184Y155366D01*
X1053134Y155116D01*
X1053036Y154881D01*
X1052460Y151983D01*
Y151728D01*
X1052410Y151477D01*
Y148523D01*
X1052460Y148272D01*
Y148017D01*
X1053036Y145119D01*
X1053134Y144884D01*
X1053184Y144634D01*
X1054314Y141904D01*
X1054456Y141692D01*
X1054554Y141456D01*
X1056195Y138999D01*
X1056376Y138819D01*
X1056517Y138607D01*
X1058607Y136517D01*
X1058819Y136376D01*
X1058999Y136195D01*
X1061456Y134554D01*
X1061692Y134456D01*
X1061904Y134314D01*
X1064634Y133184D01*
X1064884Y133134D01*
X1065119Y133036D01*
X1068017Y132460D01*
X1068272D01*
X1068523Y132410D01*
X1071477D01*
X1071728Y132460D01*
X1071983D01*
X1074881Y133036D01*
X1075116Y133134D01*
X1075366Y133184D01*
X1078096Y134314D01*
X1078308Y134456D01*
X1078544Y134554D01*
X1081001Y136195D01*
X1081181Y136376D01*
X1081393Y136517D01*
X1083483Y138607D01*
X1083624Y138819D01*
X1083804Y138999D01*
X1085446Y141456D01*
X1085544Y141692D01*
X1085685Y141904D01*
X1086816Y144634D01*
X1086866Y144884D01*
X1086964Y145119D01*
X1087540Y148017D01*
Y148272D01*
X1087590Y148523D01*
Y151477D01*
X1087540Y151728D01*
Y151983D01*
X1086964Y154881D01*
X1086866Y155116D01*
X1086816Y155366D01*
X1085685Y158096D01*
X1085544Y158308D01*
X1085446Y158544D01*
X1083804Y161001D01*
X1083624Y161181D01*
X1083483Y161393D01*
X1081393Y163482D01*
X1081181Y163624D01*
X1081001Y163804D01*
X1078544Y165446D01*
X1078308Y165544D01*
X1078096Y165685D01*
X1075366Y166816D01*
X1075116Y166866D01*
X1074881Y166964D01*
X1071983Y167540D01*
X1071728D01*
X1071477Y167590D01*
D02*
G37*
G36*
X31477D02*
X28523D01*
X28272Y167540D01*
X28017D01*
X25119Y166964D01*
X24884Y166866D01*
X24634Y166816D01*
X21904Y165685D01*
X21692Y165544D01*
X21456Y165446D01*
X18999Y163804D01*
X18819Y163624D01*
X18607Y163482D01*
X16517Y161393D01*
X16376Y161181D01*
X16195Y161001D01*
X14554Y158544D01*
X14456Y158308D01*
X14315Y158096D01*
X13184Y155366D01*
X13134Y155116D01*
X13036Y154881D01*
X12460Y151983D01*
Y151728D01*
X12410Y151477D01*
Y148523D01*
X12460Y148272D01*
Y148017D01*
X13036Y145119D01*
X13134Y144884D01*
X13184Y144634D01*
X14315Y141904D01*
X14456Y141692D01*
X14554Y141456D01*
X16195Y138999D01*
X16376Y138819D01*
X16517Y138607D01*
X18607Y136517D01*
X18819Y136376D01*
X18999Y136195D01*
X21456Y134554D01*
X21692Y134456D01*
X21904Y134314D01*
X24634Y133184D01*
X24884Y133134D01*
X25119Y133036D01*
X28017Y132460D01*
X28272D01*
X28523Y132410D01*
X31477D01*
X31727Y132460D01*
X31983D01*
X34880Y133036D01*
X35116Y133134D01*
X35366Y133184D01*
X38096Y134314D01*
X38308Y134456D01*
X38544Y134554D01*
X41001Y136195D01*
X41181Y136376D01*
X41393Y136517D01*
X43482Y138607D01*
X43624Y138819D01*
X43804Y138999D01*
X45446Y141456D01*
X45544Y141692D01*
X45685Y141904D01*
X46816Y144634D01*
X46866Y144884D01*
X46964Y145119D01*
X47540Y148017D01*
Y148272D01*
X47590Y148523D01*
Y151477D01*
X47540Y151728D01*
Y151983D01*
X46964Y154881D01*
X46866Y155116D01*
X46816Y155366D01*
X45685Y158096D01*
X45544Y158308D01*
X45446Y158544D01*
X43804Y161001D01*
X43624Y161181D01*
X43482Y161393D01*
X41393Y163482D01*
X41181Y163624D01*
X41001Y163804D01*
X38544Y165446D01*
X38308Y165544D01*
X38096Y165685D01*
X35366Y166816D01*
X35116Y166866D01*
X34880Y166964D01*
X31983Y167540D01*
X31727D01*
X31477Y167590D01*
D02*
G37*
G36*
X245000Y330590D02*
X187000D01*
X186009Y330393D01*
X185169Y329831D01*
X184607Y328991D01*
X184410Y328000D01*
Y303000D01*
Y230875D01*
X184420Y230824D01*
X184412Y230772D01*
X184519Y230330D01*
X184607Y229884D01*
X184636Y229840D01*
X184648Y229790D01*
X252314Y83144D01*
X251256Y82407D01*
X247831Y85831D01*
X246991Y86393D01*
X246000Y86590D01*
X237073Y86590D01*
X178831Y144831D01*
X177991Y145393D01*
X177000Y145590D01*
X137000Y145590D01*
X136009Y145393D01*
X135169Y144831D01*
X134607Y143991D01*
X134410Y143000D01*
X134410Y105000D01*
X134607Y104009D01*
X135169Y103169D01*
X204169Y34169D01*
X205009Y33607D01*
X206000Y33410D01*
X237000D01*
X237991Y33607D01*
X238831Y34169D01*
X253831Y49169D01*
X254393Y50009D01*
X254590Y51000D01*
Y75181D01*
X255860Y75460D01*
X261649Y62915D01*
X268759Y47505D01*
X268919Y47285D01*
X269036Y47040D01*
X269213Y46880D01*
X269353Y46687D01*
X269585Y46545D01*
X269787Y46364D01*
X270012Y46284D01*
X270215Y46160D01*
X270483Y46117D01*
X270740Y46027D01*
X288629Y43437D01*
X288989Y43456D01*
X289349Y43434D01*
X289490Y43482D01*
X289638Y43490D01*
X289964Y43646D01*
X290305Y43763D01*
X302305Y50763D01*
X302526Y50958D01*
X302775Y51114D01*
X302900Y51290D01*
X303062Y51433D01*
X303191Y51697D01*
X303362Y51937D01*
X312362Y71937D01*
X312437Y72265D01*
X312555Y72580D01*
X312550Y72753D01*
X312589Y72922D01*
X312533Y73254D01*
X312522Y73590D01*
X254522Y321590D01*
X254434Y321783D01*
X254393Y321991D01*
X254227Y322239D01*
X254104Y322510D01*
X253949Y322655D01*
X253831Y322831D01*
X246831Y329831D01*
X245991Y330393D01*
X245000Y330590D01*
D02*
G37*
G36*
X185000Y40167D02*
X182369Y39820D01*
X179916Y38805D01*
X177811Y37189D01*
X176195Y35083D01*
X175180Y32631D01*
X174833Y30000D01*
X175180Y27369D01*
X176195Y24917D01*
X177811Y22811D01*
X179916Y21195D01*
X182369Y20180D01*
X185000Y19833D01*
X187631Y20180D01*
X190084Y21195D01*
X192189Y22811D01*
X193805Y24917D01*
X194820Y27369D01*
X195167Y30000D01*
X194820Y32631D01*
X193805Y35083D01*
X192189Y37189D01*
X190084Y38805D01*
X187631Y39820D01*
X185000Y40167D01*
D02*
G37*
G36*
X75000D02*
X72369Y39820D01*
X69917Y38805D01*
X67811Y37189D01*
X66195Y35083D01*
X65180Y32631D01*
X64833Y30000D01*
X65180Y27369D01*
X66195Y24917D01*
X67811Y22811D01*
X69917Y21195D01*
X72369Y20180D01*
X75000Y19833D01*
X77631Y20180D01*
X80084Y21195D01*
X82189Y22811D01*
X83805Y24917D01*
X84820Y27369D01*
X85167Y30000D01*
X84820Y32631D01*
X83805Y35083D01*
X82189Y37189D01*
X80084Y38805D01*
X77631Y39820D01*
X75000Y40167D01*
D02*
G37*
G36*
X1071477Y47590D02*
X1068523D01*
X1068272Y47540D01*
X1068017D01*
X1065119Y46964D01*
X1064884Y46866D01*
X1064634Y46816D01*
X1061904Y45685D01*
X1061692Y45544D01*
X1061456Y45446D01*
X1058999Y43804D01*
X1058819Y43624D01*
X1058607Y43482D01*
X1056517Y41393D01*
X1056376Y41181D01*
X1056195Y41001D01*
X1054554Y38544D01*
X1054456Y38308D01*
X1054314Y38096D01*
X1053184Y35366D01*
X1053134Y35116D01*
X1053036Y34880D01*
X1052460Y31983D01*
Y31727D01*
X1052410Y31477D01*
Y28523D01*
X1052460Y28272D01*
Y28017D01*
X1053036Y25119D01*
X1053134Y24884D01*
X1053184Y24634D01*
X1054314Y21904D01*
X1054456Y21692D01*
X1054554Y21456D01*
X1056195Y18999D01*
X1056376Y18819D01*
X1056517Y18607D01*
X1058607Y16517D01*
X1058819Y16376D01*
X1058999Y16195D01*
X1061456Y14554D01*
X1061692Y14456D01*
X1061904Y14315D01*
X1064634Y13184D01*
X1064884Y13134D01*
X1065119Y13036D01*
X1068017Y12460D01*
X1068272D01*
X1068523Y12410D01*
X1071477D01*
X1071728Y12460D01*
X1071983D01*
X1074881Y13036D01*
X1075116Y13134D01*
X1075366Y13184D01*
X1078096Y14315D01*
X1078308Y14456D01*
X1078544Y14554D01*
X1081001Y16195D01*
X1081181Y16376D01*
X1081393Y16517D01*
X1083483Y18607D01*
X1083624Y18819D01*
X1083804Y18999D01*
X1085446Y21456D01*
X1085544Y21692D01*
X1085685Y21904D01*
X1086816Y24634D01*
X1086866Y24884D01*
X1086964Y25119D01*
X1087540Y28017D01*
Y28272D01*
X1087590Y28523D01*
Y31477D01*
X1087540Y31727D01*
Y31983D01*
X1086964Y34881D01*
X1086866Y35116D01*
X1086816Y35366D01*
X1085685Y38096D01*
X1085544Y38308D01*
X1085446Y38544D01*
X1083804Y41001D01*
X1083624Y41181D01*
X1083483Y41393D01*
X1081393Y43482D01*
X1081181Y43624D01*
X1081001Y43804D01*
X1078544Y45446D01*
X1078308Y45544D01*
X1078096Y45685D01*
X1075366Y46816D01*
X1075116Y46866D01*
X1074881Y46964D01*
X1071983Y47540D01*
X1071728D01*
X1071477Y47590D01*
D02*
G37*
G36*
X31477D02*
X28523D01*
X28272Y47540D01*
X28017D01*
X25119Y46964D01*
X24884Y46866D01*
X24634Y46816D01*
X21904Y45685D01*
X21692Y45544D01*
X21456Y45446D01*
X18999Y43804D01*
X18819Y43624D01*
X18607Y43482D01*
X16517Y41393D01*
X16376Y41181D01*
X16195Y41001D01*
X14554Y38544D01*
X14456Y38308D01*
X14315Y38096D01*
X13184Y35366D01*
X13134Y35116D01*
X13036Y34880D01*
X12460Y31983D01*
Y31727D01*
X12410Y31477D01*
Y28523D01*
X12460Y28272D01*
Y28017D01*
X13036Y25119D01*
X13134Y24884D01*
X13184Y24634D01*
X14315Y21904D01*
X14456Y21692D01*
X14554Y21456D01*
X16195Y18999D01*
X16376Y18819D01*
X16517Y18607D01*
X18607Y16517D01*
X18819Y16376D01*
X18999Y16195D01*
X21456Y14554D01*
X21692Y14456D01*
X21904Y14315D01*
X24634Y13184D01*
X24884Y13134D01*
X25119Y13036D01*
X28017Y12460D01*
X28272D01*
X28523Y12410D01*
X31477D01*
X31727Y12460D01*
X31983D01*
X34880Y13036D01*
X35116Y13134D01*
X35366Y13184D01*
X38096Y14315D01*
X38308Y14456D01*
X38544Y14554D01*
X41001Y16195D01*
X41181Y16376D01*
X41393Y16517D01*
X43482Y18607D01*
X43624Y18819D01*
X43804Y18999D01*
X45446Y21456D01*
X45544Y21692D01*
X45685Y21904D01*
X46816Y24634D01*
X46866Y24884D01*
X46964Y25119D01*
X47540Y28017D01*
Y28272D01*
X47590Y28523D01*
Y31477D01*
X47540Y31727D01*
Y31983D01*
X46964Y34881D01*
X46866Y35116D01*
X46816Y35366D01*
X45685Y38096D01*
X45544Y38308D01*
X45446Y38544D01*
X43804Y41001D01*
X43624Y41181D01*
X43482Y41393D01*
X41393Y43482D01*
X41181Y43624D01*
X41001Y43804D01*
X38544Y45446D01*
X38308Y45544D01*
X38096Y45685D01*
X35366Y46816D01*
X35116Y46866D01*
X34880Y46964D01*
X31983Y47540D01*
X31727D01*
X31477Y47590D01*
D02*
G37*
%LPD*%
G36*
X984781Y516781D02*
X984631Y516917D01*
X984181Y517039D01*
X983430Y517147D01*
X982381Y517241D01*
X975181Y517471D01*
X969781Y517500D01*
Y532500D01*
X984781Y533219D01*
Y516781D01*
D02*
G37*
G36*
X933370Y533083D02*
X933820Y532961D01*
X934569Y532853D01*
X935620Y532759D01*
X942820Y532529D01*
X948220Y532500D01*
Y517500D01*
X933220Y516781D01*
Y533219D01*
X933370Y533083D01*
D02*
G37*
G36*
X916780Y516781D02*
X916630Y516917D01*
X916180Y517039D01*
X915431Y517147D01*
X914380Y517241D01*
X907180Y517471D01*
X901780Y517500D01*
Y532500D01*
X916780Y533219D01*
Y516781D01*
D02*
G37*
G36*
X865870Y533083D02*
X866320Y532961D01*
X867069Y532853D01*
X868120Y532759D01*
X875320Y532529D01*
X880720Y532500D01*
Y517500D01*
X865720Y516781D01*
Y533219D01*
X865870Y533083D01*
D02*
G37*
G36*
X990002Y492046D02*
X989417Y492234D01*
X988844Y492353D01*
X988283Y492403D01*
X987734Y492383D01*
X987197Y492294D01*
X986673Y492136D01*
X986160Y491908D01*
X985660Y491611D01*
X985171Y491245D01*
X984695Y490809D01*
X982001Y493503D01*
X982513Y494050D01*
X982968Y494609D01*
X983364Y495180D01*
X983702Y495762D01*
X983983Y496357D01*
X984205Y496962D01*
X984369Y497580D01*
X984476Y498209D01*
X984524Y498850D01*
X984514Y499503D01*
X990002Y492046D01*
D02*
G37*
G36*
X866081Y499482D02*
X866397Y497434D01*
X866610Y496517D01*
X866861Y495672D01*
X867149Y494897D01*
X867473Y494194D01*
X867834Y493562D01*
X868233Y493001D01*
X868668Y492512D01*
X866201Y489590D01*
X865681Y490051D01*
X865100Y490452D01*
X864459Y490795D01*
X863758Y491078D01*
X862996Y491302D01*
X862174Y491467D01*
X861292Y491573D01*
X860349Y491620D01*
X859345Y491608D01*
X858508Y491551D01*
X857733Y491420D01*
X855858Y490974D01*
X855005Y490702D01*
X854208Y490397D01*
X853468Y490059D01*
X852784Y489688D01*
X852156Y489283D01*
X851585Y488846D01*
X851070Y488376D01*
X848111Y490805D01*
X848562Y491314D01*
X848940Y491863D01*
X849245Y492454D01*
X849475Y493085D01*
X849632Y493756D01*
X849715Y494469D01*
X849724Y495222D01*
X849660Y496016D01*
X849521Y496851D01*
X849310Y497727D01*
X858481Y491771D01*
X865978Y500612D01*
X866081Y499482D01*
D02*
G37*
G36*
X924153Y491542D02*
X923278Y491601D01*
X922440Y491599D01*
X921639Y491536D01*
X920875Y491411D01*
X920149Y491226D01*
X919460Y490979D01*
X918808Y490671D01*
X918193Y490302D01*
X917616Y489872D01*
X917075Y489381D01*
X914381Y492075D01*
X914872Y492615D01*
X915302Y493193D01*
X915671Y493808D01*
X915979Y494460D01*
X916226Y495149D01*
X916411Y495875D01*
X916536Y496639D01*
X916599Y497440D01*
X916601Y498278D01*
X916542Y499153D01*
X924153Y491542D01*
D02*
G37*
G36*
X933512Y501251D02*
X934999Y497344D01*
X935372Y496583D01*
X936119Y495317D01*
X936493Y494813D01*
X936868Y494395D01*
X935038Y490837D01*
X934492Y491319D01*
X933902Y491719D01*
X933268Y492034D01*
X932591Y492267D01*
X931869Y492416D01*
X931104Y492481D01*
X930295Y492463D01*
X929442Y492362D01*
X928545Y492177D01*
X927605Y491909D01*
X933141Y502443D01*
X933512Y501251D01*
D02*
G37*
G36*
X868225Y483031D02*
X867735Y482489D01*
X867303Y481903D01*
X866931Y481272D01*
X866618Y480597D01*
X866363Y479878D01*
X866168Y479115D01*
X866032Y478308D01*
X865955Y477456D01*
X865937Y476560D01*
X865977Y475620D01*
X858120Y483477D01*
X859060Y483437D01*
X859956Y483455D01*
X860808Y483532D01*
X861615Y483668D01*
X862378Y483863D01*
X863097Y484118D01*
X863772Y484431D01*
X864403Y484803D01*
X864989Y485235D01*
X865531Y485725D01*
X868225Y483031D01*
D02*
G37*
G36*
X850478Y484028D02*
X850937Y483664D01*
X851396Y483362D01*
X851855Y483123D01*
X852315Y482946D01*
X852775Y482831D01*
X853236Y482779D01*
X853697Y482789D01*
X854158Y482862D01*
X854620Y482997D01*
X849216Y476905D01*
X849297Y477388D01*
X849318Y477871D01*
X849279Y478355D01*
X849180Y478839D01*
X849021Y479325D01*
X848802Y479811D01*
X848523Y480297D01*
X848184Y480784D01*
X847785Y481272D01*
X847326Y481761D01*
X850020Y484455D01*
X850478Y484028D01*
D02*
G37*
G36*
X917511Y485235D02*
X918097Y484803D01*
X918728Y484431D01*
X919403Y484118D01*
X920122Y483863D01*
X920885Y483668D01*
X921692Y483532D01*
X922544Y483455D01*
X923440Y483437D01*
X924380Y483477D01*
X916523Y475620D01*
X916563Y476560D01*
X916545Y477456D01*
X916468Y478308D01*
X916332Y479115D01*
X916137Y479878D01*
X915882Y480597D01*
X915569Y481272D01*
X915197Y481903D01*
X914765Y482489D01*
X914275Y483031D01*
X916969Y485725D01*
X917511Y485235D01*
D02*
G37*
G36*
X985390Y485362D02*
X985962Y484961D01*
X986601Y484608D01*
X987305Y484304D01*
X988075Y484049D01*
X988911Y483842D01*
X989813Y483684D01*
X990781Y483574D01*
X991815Y483512D01*
X992915Y483500D01*
X984500Y475085D01*
X984488Y476185D01*
X984316Y478187D01*
X984158Y479089D01*
X983951Y479925D01*
X983696Y480695D01*
X983392Y481399D01*
X983039Y482038D01*
X982638Y482610D01*
X982189Y483117D01*
X984883Y485811D01*
X985390Y485362D01*
D02*
G37*
G36*
X935811Y483117D02*
X935361Y482610D01*
X934961Y482038D01*
X934608Y481399D01*
X934304Y480695D01*
X934049Y479925D01*
X933842Y479089D01*
X933684Y478187D01*
X933574Y477219D01*
X933512Y476185D01*
X933500Y475085D01*
X925085Y483500D01*
X926185Y483512D01*
X928187Y483684D01*
X929089Y483842D01*
X929925Y484049D01*
X930695Y484304D01*
X931399Y484608D01*
X932038Y484961D01*
X932610Y485362D01*
X933117Y485811D01*
X935811Y483117D01*
D02*
G37*
G36*
X788750Y383500D02*
X782500Y387500D01*
X776250Y383500D01*
Y393500D01*
X788750D01*
Y383500D01*
D02*
G37*
G36*
X752947Y394705D02*
X754340Y393500D01*
X761250D01*
Y383500D01*
X755000Y387500D01*
X748750Y383500D01*
Y393500D01*
X751225D01*
X752440Y395202D01*
X752947Y394705D01*
D02*
G37*
G36*
X726275Y393500D02*
X728750D01*
Y383500D01*
X722500Y387500D01*
X716250Y383500D01*
Y393500D01*
X723186D01*
X723622Y393853D01*
X724553Y394705D01*
X725060Y395202D01*
X726275Y393500D01*
D02*
G37*
G36*
X701250Y383500D02*
X695000Y387500D01*
X688750Y383500D01*
Y393500D01*
X701250D01*
Y383500D01*
D02*
G37*
G36*
X761250Y379500D02*
Y373500D01*
X748750D01*
Y379500D01*
X755000Y383500D01*
X761250Y379500D01*
D02*
G37*
G36*
X788750D02*
Y373500D01*
X779399D01*
X779070Y373219D01*
X778605Y372776D01*
X777910Y373500D01*
X776250D01*
Y375228D01*
X775834Y375662D01*
X776250Y376074D01*
Y379500D01*
X782500Y383500D01*
X788750Y379500D01*
D02*
G37*
G36*
X701250D02*
Y373500D01*
X698066D01*
X697508Y372663D01*
X696969Y373194D01*
X696618Y373500D01*
X688750D01*
Y379500D01*
X695000Y383500D01*
X701250Y379500D01*
D02*
G37*
G36*
X728750D02*
Y373500D01*
X725153D01*
X725157Y373461D01*
X725228Y373006D01*
X725328Y372565D01*
X725455Y372139D01*
X725612Y371728D01*
X725797Y371331D01*
X726010Y370948D01*
X726252Y370580D01*
X726522Y370227D01*
X719562Y370978D01*
X719890Y371262D01*
X720184Y371569D01*
X720443Y371900D01*
X720668Y372253D01*
X720858Y372630D01*
X721013Y373030D01*
X721134Y373453D01*
X721143Y373500D01*
X716250D01*
Y379500D01*
X722500Y383500D01*
X728750Y379500D01*
D02*
G37*
G36*
X740352Y397156D02*
X740474Y396972D01*
X744727Y392720D01*
X744727Y392720D01*
X746160Y391762D01*
Y383500D01*
X746205Y383275D01*
X746200Y383045D01*
X746303Y382784D01*
X746357Y382509D01*
X746369Y382491D01*
X746839Y381500D01*
X746369Y380509D01*
X746357Y380491D01*
X746313Y380266D01*
X746256Y380137D01*
X731298Y365179D01*
X730096Y365773D01*
X730264Y367052D01*
X730005Y369021D01*
X729682Y369801D01*
X729741Y371107D01*
X730581Y371669D01*
X731143Y372509D01*
X731340Y373500D01*
Y379500D01*
X731285Y379775D01*
X731280Y380055D01*
X731188Y380266D01*
X731143Y380491D01*
X731131Y380509D01*
X730661Y381500D01*
X731131Y382491D01*
X731143Y382509D01*
X731197Y382784D01*
X731300Y383045D01*
X731295Y383275D01*
X731340Y383500D01*
Y391396D01*
X733057Y391737D01*
X734527Y392720D01*
X739088Y397280D01*
X740352Y397156D01*
D02*
G37*
G36*
X707055Y323269D02*
X707603Y322868D01*
X708215Y322503D01*
X708892Y322172D01*
X709633Y321875D01*
X710437Y321613D01*
X711307Y321386D01*
X713237Y321035D01*
X714299Y320911D01*
X705306Y313663D01*
X705395Y314648D01*
X705421Y315581D01*
X705387Y316463D01*
X705291Y317293D01*
X705134Y318071D01*
X704915Y318798D01*
X704636Y319473D01*
X704295Y320097D01*
X703892Y320668D01*
X703429Y321188D01*
X706570Y323704D01*
X707055Y323269D01*
D02*
G37*
G36*
X757059Y322823D02*
X757622Y322420D01*
X758243Y322066D01*
X758922Y321761D01*
X759659Y321504D01*
X760454Y321296D01*
X761308Y321137D01*
X762219Y321026D01*
X763189Y320963D01*
X764218Y320950D01*
X756050Y312782D01*
X756037Y313811D01*
X755863Y315692D01*
X755704Y316546D01*
X755496Y317341D01*
X755239Y318078D01*
X754934Y318757D01*
X754580Y319378D01*
X754177Y319941D01*
X753726Y320446D01*
X756554Y323274D01*
X757059Y322823D01*
D02*
G37*
G36*
X698674Y320446D02*
X698223Y319941D01*
X697820Y319378D01*
X697466Y318757D01*
X697161Y318078D01*
X696904Y317341D01*
X696696Y316546D01*
X696537Y315692D01*
X696426Y314781D01*
X696363Y313811D01*
X696350Y312782D01*
X688183Y320950D01*
X689211Y320963D01*
X691092Y321137D01*
X691946Y321296D01*
X692741Y321504D01*
X693478Y321761D01*
X694157Y322066D01*
X694778Y322420D01*
X695341Y322823D01*
X695846Y323274D01*
X698674Y320446D01*
D02*
G37*
G36*
X848869Y320783D02*
X849320Y320661D01*
X850070Y320553D01*
X851120Y320459D01*
X858319Y320229D01*
X863719Y320200D01*
Y305200D01*
X848719Y304480D01*
Y320919D01*
X848869Y320783D01*
D02*
G37*
G36*
X832281Y304480D02*
X832131Y304617D01*
X831681Y304739D01*
X830930Y304847D01*
X829881Y304941D01*
X822681Y305171D01*
X817281Y305200D01*
Y320200D01*
X832281Y320919D01*
Y304480D01*
D02*
G37*
G36*
X208257Y513694D02*
X208394Y511509D01*
X208523Y510548D01*
X208693Y509674D01*
X208903Y508888D01*
X209154Y508189D01*
X209446Y507578D01*
X209778Y507054D01*
X210150Y506618D01*
X208383Y504850D01*
X207946Y505222D01*
X207422Y505554D01*
X206811Y505846D01*
X206112Y506097D01*
X205326Y506307D01*
X204452Y506477D01*
X203491Y506606D01*
X201306Y506743D01*
X200082Y506750D01*
X208250Y514917D01*
X208257Y513694D01*
D02*
G37*
G36*
X459429Y389500D02*
X458990Y389927D01*
X458119Y390648D01*
X457687Y390940D01*
X457259Y391188D01*
X456833Y391390D01*
X456410Y391548D01*
X455990Y391660D01*
X455573Y391727D01*
X455159Y391750D01*
Y394250D01*
X455573Y394272D01*
X455990Y394340D01*
X456410Y394453D01*
X456833Y394610D01*
X457259Y394813D01*
X457687Y395060D01*
X458119Y395353D01*
X458553Y395690D01*
X458990Y396073D01*
X459429Y396500D01*
Y389500D01*
D02*
G37*
G36*
X663373Y519934D02*
X663297Y519818D01*
X663261Y519685D01*
X663264Y519535D01*
X663307Y519368D01*
X663389Y519184D01*
X663511Y518983D01*
X663672Y518765D01*
X663874Y518531D01*
X664114Y518279D01*
X661286Y515450D01*
X660825Y515902D01*
X659319Y517196D01*
X659027Y517391D01*
X658768Y517534D01*
X658543Y517626D01*
X658352Y517666D01*
X658195Y517655D01*
X663489Y520033D01*
X663373Y519934D01*
D02*
G37*
G36*
X664738Y324978D02*
X664851Y324296D01*
X665040Y323606D01*
X665304Y322910D01*
X665644Y322207D01*
X666059Y321498D01*
X666550Y320781D01*
X667116Y320058D01*
X667758Y319328D01*
X668475Y318592D01*
X656925D01*
X657642Y319328D01*
X658850Y320781D01*
X659341Y321498D01*
X659756Y322207D01*
X660096Y322910D01*
X660360Y323606D01*
X660549Y324296D01*
X660662Y324978D01*
X660700Y325654D01*
X664700D01*
X664738Y324978D01*
D02*
G37*
G36*
X465200Y525660D02*
X463936Y524147D01*
X463422Y523405D01*
X462988Y522671D01*
X462632Y521946D01*
X462355Y521231D01*
X462158Y520524D01*
X462039Y519827D01*
X462000Y519139D01*
X458000D01*
X457961Y519827D01*
X457842Y520524D01*
X457645Y521231D01*
X457368Y521946D01*
X457012Y522671D01*
X456578Y523405D01*
X456064Y524147D01*
X455472Y524899D01*
X454800Y525660D01*
X454050Y526430D01*
X465950D01*
X465200Y525660D01*
D02*
G37*
G36*
X639338Y324978D02*
X639451Y324296D01*
X639640Y323606D01*
X639904Y322910D01*
X640244Y322207D01*
X640659Y321498D01*
X641150Y320781D01*
X641716Y320058D01*
X642358Y319328D01*
X643075Y318592D01*
X631525D01*
X632242Y319328D01*
X633450Y320781D01*
X633941Y321498D01*
X634356Y322207D01*
X634696Y322910D01*
X634960Y323606D01*
X635149Y324296D01*
X635262Y324978D01*
X635300Y325654D01*
X639300D01*
X639338Y324978D01*
D02*
G37*
G36*
X440200Y525660D02*
X438936Y524147D01*
X438422Y523405D01*
X437988Y522671D01*
X437632Y521946D01*
X437355Y521231D01*
X437158Y520524D01*
X437039Y519827D01*
X437000Y519139D01*
X433000D01*
X432961Y519827D01*
X432842Y520524D01*
X432645Y521231D01*
X432368Y521946D01*
X432012Y522671D01*
X431578Y523405D01*
X431064Y524147D01*
X430472Y524899D01*
X429800Y525660D01*
X429050Y526430D01*
X440950D01*
X440200Y525660D01*
D02*
G37*
G36*
X563138Y324978D02*
X563251Y324296D01*
X563440Y323606D01*
X563704Y322910D01*
X564044Y322207D01*
X564459Y321498D01*
X564950Y320781D01*
X565516Y320058D01*
X566158Y319328D01*
X566875Y318592D01*
X555325D01*
X556042Y319328D01*
X557250Y320781D01*
X557741Y321498D01*
X558156Y322207D01*
X558496Y322910D01*
X558760Y323606D01*
X558949Y324296D01*
X559062Y324978D01*
X559100Y325654D01*
X563100D01*
X563138Y324978D01*
D02*
G37*
G36*
X252000Y321000D02*
X310000Y73000D01*
X301000Y53000D01*
X289000Y46000D01*
X271111Y48590D01*
X264000Y64000D01*
X187000Y230875D01*
Y303000D01*
Y328000D01*
X245000D01*
X252000Y321000D01*
D02*
G37*
G36*
X177000Y143000D02*
X236000Y84000D01*
X246000Y84000D01*
X252000Y78000D01*
Y51000D01*
X237000Y36000D01*
X206000D01*
X137000Y105000D01*
X137000Y143000D01*
X177000Y143000D01*
D02*
G37*
D26*
X695000Y390500D02*
D03*
Y377500D02*
D03*
X755000Y390500D02*
D03*
Y377500D02*
D03*
X722500Y390500D02*
D03*
Y377500D02*
D03*
X782500Y390500D02*
D03*
Y377500D02*
D03*
D27*
X470000Y55000D02*
Y270000D01*
X469500Y54500D02*
X470000Y55000D01*
X484900Y312700D02*
Y312700D01*
X472190Y299990D02*
X484900Y312700D01*
X435000Y507000D02*
Y532500D01*
X561100Y312700D02*
Y380900D01*
X435000Y507000D02*
X561100Y380900D01*
X460000Y514628D02*
Y532500D01*
Y514628D02*
X637300Y337328D01*
Y312700D02*
Y337328D01*
X662700Y312700D02*
Y516864D01*
X653772Y525793D02*
X662700Y516864D01*
X653772Y525793D02*
Y534587D01*
X750668Y378003D02*
X750668Y378003D01*
X750630Y378040D02*
X750668Y378003D01*
X750705Y378040D01*
X727147Y354481D02*
X750668Y378003D01*
X750705Y378040D02*
X753130D01*
X727147Y349147D02*
Y354481D01*
X753130Y378040D02*
X753671Y377500D01*
X755000D01*
X709563Y366213D02*
X720607Y355169D01*
X704442Y323003D02*
Y326442D01*
X706787Y366213D02*
X709563D01*
X688100Y312700D02*
X697902Y322502D01*
Y329151D02*
X720607Y351856D01*
Y355169D01*
X704442Y326442D02*
X727147Y349147D01*
X697902Y322502D02*
Y329151D01*
X704442Y323003D02*
X713500Y313945D01*
Y312700D02*
Y313945D01*
X695500Y377500D02*
X706787Y366213D01*
X695000Y377500D02*
X695500D01*
X751000Y348000D02*
X780768Y377768D01*
X751000Y326000D02*
Y348000D01*
X781000Y377536D02*
X782964D01*
X783000Y377500D01*
X780591Y377945D02*
X780768Y377768D01*
X781000Y377536D01*
X783000Y377500D02*
Y381000D01*
X751000Y326000D02*
X764300Y312700D01*
D28*
X470000Y270000D02*
X472190Y272190D01*
Y299990D01*
D29*
X347000Y393000D02*
X463000D01*
X230500Y484500D02*
X255500D01*
X347000Y393000D01*
X200000Y515000D02*
X230500Y484500D01*
X494500Y54500D02*
X496940Y56940D01*
Y299340D01*
X510300Y312700D01*
D30*
X840500D02*
X884454D01*
X1014476Y442722D02*
Y515463D01*
X884454Y312700D02*
X1014476Y442722D01*
X857500Y525000D02*
X925000D01*
X993750Y524250D02*
X1005689D01*
X993000Y525000D02*
X993750Y524250D01*
X1005689D02*
X1014476Y515463D01*
X925000Y525000D02*
X993000D01*
X815100Y312700D02*
X840500D01*
D31*
X755000Y390500D02*
X782500D01*
X749024Y395924D02*
X754449Y390500D01*
X731323Y395924D02*
X737329Y401931D01*
Y405963D02*
X820824Y489458D01*
X743679Y403333D02*
X823454Y483108D01*
X754449Y390500D02*
X755000D01*
X747931Y395924D02*
X749024D01*
X743679Y400177D02*
X747931Y395924D01*
X743679Y400177D02*
Y403333D01*
X737329Y401931D02*
Y405963D01*
X820824Y489458D02*
X849458D01*
X728476Y395924D02*
X731323D01*
X852832Y478949D02*
X860332D01*
X723051Y390500D02*
X728476Y395924D01*
X823454Y483108D02*
X848673D01*
X695000Y390500D02*
X723051D01*
X849458Y489458D02*
X857500Y497500D01*
Y500000D01*
X848673Y483108D02*
X852832Y478949D01*
X860332D02*
X860692Y479308D01*
X861808D02*
X866878Y484378D01*
X915622D02*
X925000Y475000D01*
X866878Y484378D02*
X915622D01*
X858486Y500000D02*
X867758Y490728D01*
X915728D01*
X924786Y499786D01*
X857500Y500000D02*
X858486D01*
X924786Y499786D02*
Y500000D01*
X860692Y479308D02*
X861808D01*
X924786Y500000D02*
X928569D01*
X925000Y475000D02*
X935750Y485750D01*
X936413Y492156D02*
X983348D01*
X928569Y500000D02*
X936413Y492156D01*
X982250Y485750D02*
X993000Y475000D01*
X935750Y485750D02*
X982250D01*
X991192Y500000D02*
X993000D01*
X983348Y492156D02*
X991192Y500000D01*
X925000Y475000D02*
X925000D01*
X723195Y367588D02*
Y375341D01*
X722659Y367052D02*
X723195Y367588D01*
X723036Y375500D02*
X723195Y375341D01*
X722949Y377500D02*
X723036Y377412D01*
Y375500D02*
Y377412D01*
X722500Y377500D02*
X722949D01*
D32*
X410000Y480000D02*
X484900Y405100D01*
X410000Y480000D02*
Y532500D01*
X484900Y312700D02*
Y405100D01*
X345500Y532500D02*
X410000D01*
X337000Y541000D02*
X345500Y532500D01*
X125000Y515000D02*
X151000Y541000D01*
X337000D01*
D33*
X993000Y450000D02*
D03*
Y475000D02*
D03*
Y500000D02*
D03*
X925000Y450000D02*
D03*
Y475000D02*
D03*
Y500000D02*
D03*
X857500Y450000D02*
D03*
Y475000D02*
D03*
Y500000D02*
D03*
X519500Y54500D02*
D03*
X494500D02*
D03*
X485000Y532500D02*
D03*
X460000D02*
D03*
X435000D02*
D03*
D34*
X993000Y525000D02*
D03*
X925000D02*
D03*
X857500D02*
D03*
D35*
X284250Y65500D02*
D03*
X335050D02*
D03*
X385850D02*
D03*
X715100Y65000D02*
D03*
X765900D02*
D03*
X664300D02*
D03*
X613500D02*
D03*
X918300D02*
D03*
X867500D02*
D03*
X816700D02*
D03*
X602972Y534587D02*
D03*
X653772D02*
D03*
D36*
X233450Y65500D02*
D03*
X969100Y65000D02*
D03*
X704572Y534587D02*
D03*
D37*
X125000Y515000D02*
D03*
X469500Y54500D02*
D03*
X410000Y532500D02*
D03*
X840500Y312700D02*
D03*
D38*
X150000Y515000D02*
D03*
X175000D02*
D03*
X200000D02*
D03*
X225000D02*
D03*
X815100Y312700D02*
D03*
X764300D02*
D03*
X713500D02*
D03*
X662700D02*
D03*
X611900D02*
D03*
X561100D02*
D03*
X510300D02*
D03*
X459500D02*
D03*
X815100Y287300D02*
D03*
X764300D02*
D03*
X713500D02*
D03*
X662700D02*
D03*
X611900D02*
D03*
X561100D02*
D03*
X510300D02*
D03*
X459500D02*
D03*
X840500D02*
D03*
X789700Y312700D02*
D03*
Y287300D02*
D03*
X738900Y312700D02*
D03*
Y287300D02*
D03*
X688100Y312700D02*
D03*
Y287300D02*
D03*
X637300Y312700D02*
D03*
Y287300D02*
D03*
X586500Y312700D02*
D03*
Y287300D02*
D03*
X535700Y312700D02*
D03*
Y287300D02*
D03*
X484900Y312700D02*
D03*
Y287300D02*
D03*
D39*
X155000Y130000D02*
D03*
X200000Y302000D02*
D03*
D40*
X105000Y130000D02*
D03*
X150000Y302000D02*
D03*
D41*
X75000Y30000D02*
D03*
X185000D02*
D03*
D42*
X463000Y393000D02*
D03*
X722659Y367052D02*
D03*
M02*
