M48
;Layer_Color=9474304
;FILE_FORMAT=4:4
METRIC,LZ
;TYPE=PLATED
T1F00S00C0.4000
T2F00S00C1.0000
T3F00S00C1.1000
T4F00S00C1.1500
T5F00S00C1.7000
T6F00S00C2.0000
;TYPE=NON_PLATED
T7F00S00C2.9000
%
T01
X00722659Y00367052
X00463Y00393
T02
X00075Y0003
X00185
T03
X005611Y002873
Y003127
X005865
X006119
Y002873
X006373
X006627
Y003127
X006881
X007135
Y002873
X007389
X007643
Y003127
X007897
X008151
Y002873
X008405
Y003127
X007897Y002873
X007389Y003127
X006881Y002873
X006373Y003127
X005865Y002873
X005357
X005103
Y003127
X005357
X004849
X004595
Y002873
X004849
X00225Y00515
X002
X00175
X0015
X00125
T04
X004695Y000545
X004945
X005195
X00993Y0045
Y00475
Y005
Y00525
X00925
Y005
Y00475
Y0045
X008575
Y00475
Y005
Y00525
X00485Y005325
X0046
X00435
X0041
T05
X00105Y0013
X00155
X0015Y00302
X002
T06
X0023345Y000655
X0028425
X0033505
X0038585
X006135Y00065
X006643
X007151
X007659
X008167
X008675
X009183
X009691
X00704572Y00534587
X00653772
X00602972
T07
X009Y002903
X004
M30
